<svg xmlns="http://www.w3.org/2000/svg" xmlns:xlink="http://www.w3.org/1999/xlink" width="1204px" height="1191px" viewBox="0 0 1203.7758424960375 1190.5691865428607">
    <g id="66b5ee29-1114-49c5-b94c-37f7a432be32">
<g style="">
		<g id="c3ff01d3-15fd-46d5-8067-999010228120">
<path style="stroke: rgb(0,0,0); stroke-opacity: 1.00; stroke-width: 3.775842; stroke-dasharray: none; stroke-linecap: butt; stroke-dashoffset: 0; stroke-linejoin: round; stroke-miterlimit: 4; fill: rgb(255,255,255); fill-opacity: 0.00; fill-rule: nonzero; opacity: 1;" d="M514.0402,1.90664c2.0157,0.01829 4.01307,0.03658 6.02876,0.05487c3.93977,0.09145 7.89786,0.1646 11.83763,0.25605c1.97905,0.05487 3.93977,0.10974 5.90049,0.1646c3.84815,0.1646 7.67797,0.32921 11.52612,0.49381c1.90575,0.09145 3.8115,0.18289 5.71725,0.27434c3.71988,0.23776 7.43975,0.47552 11.15963,0.71328c1.85078,0.14631 3.70155,0.27434 5.534,0.40236c3.57328,0.31092 7.14656,0.64013 10.73816,0.95104c1.75915,0.18289 3.53663,0.3475 5.29578,0.5121c3.40836,0.40236 6.81672,0.80473 10.2434,1.20709c4.91097,0.69499 9.82194,1.3717 14.73291,2.06669c1.68585,0.25605 3.37171,0.53039 5.05756,0.78644c3.37171,0.60355 6.7251,1.1888 10.09681,1.79235c1.66753,0.31092 3.35339,0.62184 5.02092,0.91446c3.35339,0.69499 6.68845,1.3717 10.04183,2.0484c1.66753,0.3475 3.33506,0.69499 5.00259,1.04249c3.33506,0.76815 6.6518,1.5363 9.98686,2.30445c1.64921,0.38408 3.31674,0.78644 4.96594,1.17052c3.29841,0.8596 6.59682,1.7009 9.89524,2.54221c1.64921,0.43894 3.29841,0.87789 4.94762,1.31683c3.28009,0.91446 6.54185,1.84722 9.82194,2.77997c1.63088,0.47552 3.26176,0.95104 4.89264,1.42657c3.24344,1.00591 6.48688,2.03011 9.73031,3.03602c1.63088,0.5121 3.24344,1.0242 4.856,1.55459c3.20679,1.07907 6.4319,2.17643 9.63869,3.2555c1.59423,0.56697 3.20679,1.11565 4.80102,1.68262c3.17014,1.17052 6.3586,2.32274 9.52875,3.49326c1.57591,0.60355 3.17014,1.1888 4.74605,1.79235c3.13349,1.24367 6.26698,2.48734 9.4188,3.74931c1.55758,0.62184 3.11517,1.26196 4.67275,1.8838c3.09684,1.33512 6.19368,2.65195 9.29053,3.98707c1.53926,0.65841 3.07852,1.33512 4.61778,2.01182c3.06019,1.38999 6.10206,2.79826 9.16225,4.18825c1.52093,0.71328 3.04187,1.42657 4.54448,2.13985c3.00522,1.46314 6.01044,2.94458 9.01566,4.40772c1.50261,0.74986 2.9869,1.49972 4.4895,2.24958c2.95025,1.5363 5.90049,3.09089 8.85074,4.62719c1.46596,0.78644 2.93192,1.57288 4.39788,2.35932c2.89527,1.60946 5.79055,3.23721 8.70414,4.84666c1.42931,0.82302 2.87695,1.64604 4.32458,2.45077c2.8403,1.7009 5.6806,3.38352 8.5209,5.06614c4.17799,2.61537 8.3743,5.23074 12.57061,7.84611c1.13612,0.73157 2.27224,1.46314 3.40836,2.19472c3.15182,2.0484 6.28531,4.0968 9.43712,6.16349c1.96072,1.31683 3.93977,2.63366 5.90049,3.95049c0.9712,0.6767 1.96072,1.33512 2.93192,1.99353c1.90575,1.33512 3.82982,2.65195 5.73557,3.98707c0.9712,0.6767 1.92407,1.35341 2.89527,2.01182c1.9424,1.40828 3.8848,2.79826 5.82719,4.20654c0.98952,0.71328 1.97905,1.42657 2.96857,2.13985c2.07067,1.5363 4.12301,3.0726 6.19368,4.6089c1.06282,0.78644 2.10732,1.57288 3.17014,2.35932c2.8403,2.17643 5.69892,4.35285 8.55755,6.52928c8.63084,6.65731 17.22504,13.36948 25.78259,20.11823c2.40051,1.84722 4.80102,3.69444 7.18321,5.54166c0.58638,0.45723 1.19109,0.91447 1.77748,1.35341c1.68585,1.28025 3.37171,2.5605 5.07589,3.84075c1.55758,1.17052 3.11517,2.32274 4.69107,3.49326c1.37434,1.00591 2.767,2.03011 4.15966,3.03602c0.78795,0.54868 1.57591,1.11565 2.38219,1.68262c0.36649,0.25605 0.7513,0.53039 1.1178,0.78644c0.62303,0.42065 1.22774,0.84131 1.85078,1.26196c0.69633,0.43894 1.37434,0.87789 2.07067,1.31683c0.53141,0.31092 1.08115,0.62184 1.61256,0.95104c1.15444,0.60355 2.32721,1.20709 3.48166,1.81064c0.58638,0.29263 1.19109,0.58526 1.77748,0.89618c1.28272,0.56697 2.56543,1.15223 3.84815,1.71919c0.65968,0.27434 1.31936,0.56697 1.96072,0.8596c1.42931,0.53039 2.8403,1.07907 4.25129,1.62775c0.71466,0.27434 1.44764,0.54868 2.16229,0.82302c1.55758,0.53039 3.11517,1.04249 4.67275,1.57288c0.80628,0.25605 1.59423,0.5121 2.40051,0.78644c1.70418,0.49381 3.40836,1.00591 5.11254,1.51801c0.87958,0.23776 1.75915,0.49381 2.63873,0.74986c1.8691,0.49381 3.7382,0.96933 5.6073,1.46314c0.9712,0.23776 1.92407,0.49381 2.87695,0.73157c2.05235,0.47552 4.10469,0.95104 6.13871,1.42657c3.28009,0.71328 6.56017,1.40828 9.84026,2.12156c1.61256,0.32921 3.22511,0.65841 4.83767,0.98762c3.02354,0.71328 6.06541,1.42657 9.08896,2.13985c1.48429,0.36579 2.96857,0.74986 4.45286,1.11565c2.82197,0.80473 5.62562,1.60946 8.42927,2.41419c1.39266,0.42065 2.767,0.84131 4.15966,1.24367c2.6204,0.91447 5.25913,1.82893 7.87954,2.76168c1.30104,0.45723 2.58376,0.93275 3.8848,1.40828c2.49213,1.04249 4.96594,2.08498 7.45808,3.12747c1.22774,0.53039 2.45548,1.06078 3.68323,1.60946c2.38219,1.17052 4.76437,2.35932 7.14656,3.54812c1.17277,0.60355 2.36386,1.20709 3.53663,1.82893c2.32721,1.33512 4.6361,2.67024 6.94499,4.02365c1.15444,0.6767 2.30889,1.3717 3.46333,2.06669c2.27224,1.51801 4.5628,3.03602 6.85337,4.55404c3.44501,2.48734 6.87169,4.97469 10.3167,7.46203c0.67801,0.5121 1.35601,1.0242 2.03402,1.5363c1.41099,1.17052 2.82197,2.34103 4.25129,3.51155c0.71466,0.60355 1.42931,1.20709 2.14397,1.81064c1.48429,1.33512 2.9869,2.67024 4.47118,4.00536c0.7513,0.6767 1.50261,1.35341 2.25391,2.0484c1.52093,1.46314 3.06019,2.92629 4.59945,4.38943c0.76963,0.74986 1.53926,1.49972 2.30889,2.24958c1.57591,1.57288 3.13349,3.14576 4.69107,4.71864c1.57591,1.59117 3.13349,3.20063 4.7094,4.7918c3.11517,3.40181 6.23033,6.82191 9.3455,10.22372c1.53926,1.71919 3.07852,3.43839 4.6361,5.15758c2.93192,3.51155 5.88217,7.0048 8.81409,10.49806c0.71466,0.87789 1.42931,1.75577 2.16229,2.61537c1.35601,1.71919 2.73035,3.45668 4.10469,5.17587c0.67801,0.84131 1.33769,1.7009 2.0157,2.5605c1.26439,1.66433 2.52878,3.34694 3.79317,5.01127c0.62303,0.84131 1.24607,1.66433 1.85078,2.48734c1.15444,1.59117 2.29056,3.20063 3.42668,4.7918c0.54974,0.78644 1.09947,1.57288 1.66753,2.35932c0.98952,1.48143 1.97905,2.98116 2.96857,4.48088c0.47644,0.73157 0.95287,1.46314 1.42931,2.19472c0.8246,1.35341 1.64921,2.72511 2.47381,4.0968c0.38481,0.65841 0.76963,1.31683 1.17277,1.97524c0.62303,1.20709 1.26439,2.43248 1.88742,3.63957c0.29319,0.56697 0.58638,1.15223 0.87958,1.73748c0.42146,1.0242 0.84293,2.0484 1.26439,3.09089c0.09162,0.23776 0.18325,0.47552 0.27487,0.73157c0.12827,0.43894 0.27487,0.89618 0.40314,1.33512c0.1466,0.62184 0.27487,1.22538 0.42146,1.84722c0.05497,0.32921 0.10995,0.6767 0.16492,1.00591c0.05497,0.71328 0.10995,1.40828 0.16492,2.12156c0,0.36579 0.01832,0.73157 0.03665,1.07907c-0.01832,0.76815 -0.03665,1.51801 -0.05497,2.26787c-0.03665,0.76815 -0.0733,1.5363 -0.10995,2.30445c-0.29319,1.64604 -0.58638,3.31036 -0.86125,4.9564c-0.18325,0.84131 -0.34817,1.66433 -0.53141,2.50563c-0.53141,1.75577 -1.08115,3.51155 -1.61256,5.26732c-0.31152,0.89618 -0.60471,1.77406 -0.8979,2.67024c-0.78795,1.81064 -1.55758,3.62128 -2.32721,5.43192c-0.42146,0.91447 -0.8246,1.82893 -1.24607,2.72511c-0.98952,1.82893 -1.97905,3.63957 -2.95025,5.4685c-0.53141,0.91447 -1.0445,1.81064 -1.55758,2.72511c-1.17277,1.77406 -2.34554,3.54812 -3.51831,5.34048c-0.60471,0.87789 -1.20942,1.75577 -1.83245,2.63366c-1.33769,1.68262 -2.67538,3.36523 -4.01307,5.06614c-2.16229,2.35932 -4.34291,4.73693 -6.5052,7.11454c-0.80628,0.80473 -1.61256,1.60946 -2.43716,2.41419c-1.68585,1.48143 -3.35339,2.94458 -5.03924,4.42601c-0.86125,0.71328 -1.7225,1.42657 -2.56543,2.15814c-1.81413,1.31683 -3.60993,2.63366 -5.42405,3.95049c-0.91623,0.64013 -1.85078,1.28025 -2.767,1.92038c-1.97905,1.17052 -3.93977,2.34103 -5.91882,3.52983c-1.00785,0.56697 -2.03402,1.15223 -3.04187,1.71919c-2.18062,1.06078 -4.37956,2.12156 -6.56017,3.18234c-1.13612,0.5121 -2.25391,1.0242 -3.37171,1.55459c-2.45548,0.95104 -4.91097,1.92038 -7.34813,2.88971c-0.62303,0.23776 -1.26439,0.47552 -1.88742,0.71328c-1.31936,0.43894 -2.63873,0.89618 -3.95809,1.35341c-0.65968,0.23776 -1.33769,0.45723 -1.99737,0.69499c-1.39266,0.43894 -2.80365,0.87789 -4.19631,1.31683c-0.71466,0.21947 -1.41099,0.43894 -2.12564,0.64013c-1.48429,0.43894 -2.96857,0.8596 -4.45286,1.28025c-0.7513,0.21947 -1.50261,0.42065 -2.25391,0.64013c-1.57591,0.42065 -3.15182,0.82302 -4.72772,1.24367c-0.78795,0.20118 -1.59423,0.40236 -2.40051,0.60355c-1.66753,0.42065 -3.33506,0.82302 -5.00259,1.22538c-2.63873,0.58526 -5.25913,1.1888 -7.87954,1.79235c-5.40573,1.1888 -10.81146,2.3959 -16.19887,3.62128c-1.96072,0.43894 -3.92145,0.89618 -5.88217,1.35341c-1.77748,0.42065 -3.53663,0.84131 -5.31411,1.26196c-1.61256,0.40236 -3.20679,0.80473 -4.81935,1.1888c-0.9712,0.25605 -1.96072,0.5121 -2.93192,0.76815c-0.47644,0.12803 -0.95287,0.25605 -1.42931,0.36579c-0.8979,0.25605 -1.77748,0.49381 -2.67538,0.73157c-0.43979,0.12803 -0.86125,0.23776 -1.30104,0.36579c-0.8246,0.23776 -1.63088,0.47552 -2.43716,0.71328c-0.80628,0.23776 -1.59423,0.47552 -2.40051,0.71328c-1.41099,0.45723 -2.82197,0.93275 -4.23296,1.38999c-0.69633,0.23776 -1.37434,0.47552 -2.07067,0.71328c-1.26439,0.49381 -2.52878,0.96933 -3.79317,1.46314c-0.62303,0.25605 -1.24607,0.49381 -1.8691,0.74986c-1.20942,0.54868 -2.41884,1.07907 -3.62825,1.60946c-1.8691,0.89618 -3.71988,1.79235 -5.58898,2.68853c-0.78795,0.38408 -1.57591,0.78644 -2.36386,1.1888c-1.55758,0.87789 -3.13349,1.77406 -4.69107,2.67024c-0.78795,0.45723 -1.55758,0.91447 -2.34554,1.3717c-1.52093,1.00591 -3.04187,2.03011 -4.58113,3.03602c-0.7513,0.5121 -1.50261,1.0242 -2.25391,1.55459c-1.46596,1.09736 -2.95025,2.21301 -4.41621,3.31036c-0.71466,0.56697 -1.44764,1.13394 -2.16229,1.7009c-1.39266,1.1888 -2.767,2.37761 -4.15966,3.56641c-0.67801,0.60355 -1.35601,1.1888 -2.03402,1.79235c-1.28272,1.26196 -2.56543,2.50563 -3.84815,3.74931c-0.62303,0.62184 -1.24607,1.26196 -1.8691,1.8838c-1.15444,1.28025 -2.30889,2.57879 -3.46333,3.85904c-0.54974,0.64013 -1.1178,1.29854 -1.66753,1.93867c-1.00785,1.29854 -2.0157,2.61537 -3.02354,3.91391c-1.30104,1.97524 -2.6204,3.9322 -3.93977,5.88915c-0.32984,0.56697 -0.67801,1.11565 -1.00785,1.68262c-0.65968,1.22538 -1.31936,2.46906 -1.97905,3.71273c-0.32984,0.64013 -0.65968,1.28025 -0.9712,1.92038c-0.64136,1.40828 -1.28272,2.79826 -1.92407,4.20654c-0.31152,0.73157 -0.62303,1.46314 -0.95287,2.17643c-0.60471,1.59117 -1.22774,3.16405 -1.85078,4.75522c-0.31152,0.82302 -0.62303,1.62775 -0.91623,2.45077c-0.62303,1.77406 -1.22774,3.54812 -1.83245,5.32219c-0.29319,0.91446 -0.60471,1.82893 -0.8979,2.74339c-0.60471,1.97524 -1.19109,3.96878 -1.7958,5.94402c-0.29319,1.0242 -0.58638,2.03011 -0.8979,3.05431c-0.58638,2.19472 -1.17277,4.38943 -1.77748,6.58415c-0.29319,1.11565 -0.58638,2.24958 -0.87958,3.36523c-0.58638,2.43248 -1.17277,4.84666 -1.77748,7.27914c-0.87958,3.89562 -1.77748,7.80953 -2.65705,11.70515c-2.10732,9.69333 -4.23296,19.36837 -6.4319,29.04341c-0.10995,0.43894 -0.20157,0.87789 -0.31152,1.31683c-0.03665,0.14631 -0.0733,0.31092 -0.10995,0.45723c-0.03665,0.25605 -0.0733,0.5121 -0.10995,0.76815c-0.01832,0.10974 -0.01832,0.23776 -0.03665,0.3475c0.05497,0.20118 0.10995,0.40236 0.16492,0.58526c0.03665,0.09145 0.0733,0.18289 0.12827,0.27434c0.18325,0.1646 0.36649,0.31092 0.54974,0.45723c0.10995,0.07316 0.21989,0.12803 0.32984,0.20118c0.36649,0.10974 0.71466,0.23776 1.08115,0.3475c0.20157,0.05487 0.40314,0.10974 0.62303,0.1646c0.56806,0.09145 1.15444,0.1646 1.7225,0.25605c0.32984,0.05487 0.64136,0.09145 0.95287,0.12803c0.84293,0.07316 1.68585,0.14631 2.51046,0.23776c0.45811,0.03658 0.91623,0.07316 1.37434,0.10974c1.13612,0.07316 2.27224,0.14631 3.42668,0.21947c0.29319,0.01829 0.60471,0.03658 0.91623,0.05487c2.80365,0.14631 5.62562,0.31092 8.4476,0.45723c2.21727,0.18289 4.43453,0.36579 6.6518,0.54868c1.13612,0.09145 2.27224,0.18289 3.40836,0.29263c2.38219,0.25605 4.7827,0.5121 7.16488,0.78644c1.20942,0.12803 2.41884,0.27434 3.62825,0.42065c2.52878,0.32921 5.03924,0.65841 7.5497,0.98762c1.26439,0.18289 2.52878,0.3475 3.79317,0.53039c2.58376,0.40236 5.16751,0.78644 7.75127,1.1888c2.60208,0.42065 5.18584,0.82302 7.78792,1.24367c5.18584,0.98762 10.37167,1.97524 15.55751,2.96287c1.28272,0.25605 2.56543,0.5121 3.84815,0.78644c2.49213,0.53039 5.00259,1.07907 7.49472,1.62775c3.60993,0.8596 7.20153,1.71919 10.81146,2.57879c1.19109,0.29263 2.38219,0.60355 3.57328,0.89618c2.32721,0.62184 4.65443,1.24367 6.98164,1.86551c1.15444,0.32921 2.30889,0.64013 3.44501,0.95104c2.25391,0.65841 4.4895,1.31683 6.74342,1.97524c1.1178,0.32921 2.21727,0.65841 3.33506,0.98762c2.16229,0.69499 4.34291,1.38999 6.5052,2.06669c1.06282,0.3475 2.14397,0.69499 3.22511,1.04249c2.08899,0.73157 4.17799,1.44485 6.26698,2.17643c2.07067,0.73157 4.14134,1.46314 6.21201,2.19472c3.93977,1.57288 7.86121,3.12747 11.78266,4.70035c1.9424,0.80473 3.86647,1.60946 5.79055,2.41419c3.64658,1.7009 7.29315,3.4201 10.93973,5.13929c1.7958,0.87789 3.5916,1.75577 5.38741,2.63366c3.39003,1.86551 6.76174,3.73102 10.15178,5.61482c1.66753,0.95104 3.33506,1.90209 4.98427,2.85313c3.15182,2.0484 6.28531,4.07851 9.43712,6.10863c1.53926,1.04249 3.07852,2.08498 4.61778,3.10918c2.9136,2.21301 5.80887,4.40772 8.72247,6.62073c4.12301,3.51155 8.24603,7.0048 12.36904,10.51635c0.45811,0.42065 0.91623,0.84131 1.37434,1.24367c1.02617,1.0242 2.05235,2.03011 3.09684,3.05431c0.53141,0.53039 1.06282,1.06078 1.57591,1.59117c1.13612,1.17052 2.25391,2.34103 3.39003,3.52983c1.1178,1.1888 2.25391,2.3959 3.39003,3.5847c2.23559,2.50563 4.45286,5.02956 6.67012,7.53519c0.53141,0.60355 1.06282,1.20709 1.59423,1.82893c0.95287,1.13394 1.90575,2.26787 2.85862,3.40181c0.21989,0.27434 0.43979,0.54868 0.67801,0.82302c0.40314,0.5121 0.8246,1.0242 1.22774,1.5363c0.20157,0.25605 0.40314,0.5121 0.60471,0.74986c0.36649,0.47552 0.71466,0.93275 1.06282,1.38999c0.18325,0.21947 0.34817,0.43894 0.51309,0.65841c0.29319,0.40236 0.56806,0.78644 0.86125,1.1888c0.12827,0.18289 0.27487,0.36579 0.40314,0.56697c0.20157,0.31092 0.42146,0.62184 0.62303,0.95104c0.09162,0.14631 0.20157,0.29263 0.29319,0.43894c0.10995,0.23776 0.23822,0.45723 0.36649,0.69499c0.0733,0.23776 0.1466,0.47552 0.21989,0.71328c0,0.01829 0,0.03658 0,0.07316c-0.0733,0.07316 -0.12827,0.14631 -0.20157,0.23776c-0.03665,0.03658 -0.0733,0.09145 -0.12827,0.12803c-0.1466,0.12803 -0.27487,0.23776 -0.42146,0.36579c-0.16492,0.12803 -0.32984,0.25605 -0.49476,0.40236c-0.53141,0.36579 -1.0445,0.71328 -1.57591,1.07907c-0.29319,0.20118 -0.58638,0.40236 -0.87958,0.58526c-0.71466,0.45723 -1.44764,0.91446 -2.18062,1.3717c-1.24607,0.73157 -2.49213,1.46314 -3.7382,2.19472c-0.98952,0.56697 -1.97905,1.11565 -2.96857,1.68262c-1.97905,0.93275 -3.95809,1.86551 -5.93714,2.79826c-0.9712,0.43894 -1.96072,0.8596 -2.95025,1.29854c-1.97905,0.6767 -3.93977,1.35341 -5.91882,2.01182c-0.98952,0.31092 -1.97905,0.62184 -2.96857,0.91446c-1.96072,0.42065 -3.93977,0.84131 -5.91882,1.24367c-0.98952,0.18289 -1.97905,0.36579 -2.96857,0.53039c-1.97905,0.1646 -3.97642,0.31092 -5.95547,0.47552c-0.98952,0.05487 -1.99737,0.09145 -2.9869,0.14631c-1.99737,-0.10974 -3.99474,-0.20118 -6.01044,-0.31092c-1.00785,-0.07316 -1.99737,-0.1646 -3.00522,-0.23776c-2.03402,-0.36579 -4.04972,-0.71328 -6.08374,-1.07907c-1.00785,-0.20118 -2.03402,-0.42065 -3.04187,-0.62184c-2.07067,-0.62184 -4.12301,-1.22538 -6.17536,-1.84722c-3.13349,-1.20709 -6.24866,-2.41419 -9.38215,-3.62128c-1.09947,-0.49381 -2.18062,-0.96933 -3.28009,-1.44485c-2.36386,-0.96933 -4.74605,-1.93867 -7.12823,-2.88971c-1.20942,-0.47552 -2.43716,-0.95104 -3.64658,-1.44485c-2.58376,-0.93275 -5.16751,-1.86551 -7.75127,-2.79826c-1.31936,-0.47552 -2.6204,-0.93275 -3.93977,-1.38999c-2.73035,-0.89618 -5.4607,-1.79235 -8.19106,-2.68853c-1.37434,-0.45723 -2.767,-0.89618 -4.14134,-1.33512c-2.82197,-0.84131 -5.64395,-1.68262 -8.48425,-2.52392c-1.41099,-0.40236 -2.8403,-0.82302 -4.25129,-1.22538c-2.85862,-0.76815 -5.73557,-1.5363 -8.5942,-2.30445c-1.42931,-0.36579 -2.85862,-0.74986 -4.28794,-1.11565c-2.8403,-0.6767 -5.6806,-1.35341 -8.5209,-2.03011c-1.42931,-0.32921 -2.8403,-0.65841 -4.25129,-0.98762c-2.767,-0.56697 -5.534,-1.13394 -8.301,-1.7009c-3.99474,-0.71328 -8.00781,-1.44485 -12.00255,-2.15814c-0.49476,-0.07316 -0.98952,-0.1646 -1.48429,-0.23776c-1.09947,-0.14631 -2.18062,-0.31092 -3.28009,-0.45723c-0.56806,-0.07316 -1.1178,-0.14631 -1.68585,-0.21947c-1.20942,-0.12803 -2.41884,-0.27434 -3.64658,-0.40236c-0.62303,-0.07316 -1.22774,-0.12803 -1.85078,-0.20118c-1.31936,-0.12803 -2.63873,-0.23776 -3.95809,-0.36579c-0.65968,-0.05487 -1.33769,-0.12803 -1.99737,-0.18289c-1.41099,-0.10974 -2.82197,-0.21947 -4.21464,-0.32921c-1.42931,-0.09145 -2.8403,-0.20118 -4.26961,-0.31092c-3.02354,-0.1646 -6.06541,-0.32921 -9.08896,-0.49381c-1.53926,-0.07316 -3.06019,-0.14631 -4.59945,-0.21947c-3.15182,-0.09145 -6.32196,-0.20118 -9.47377,-0.29263c-1.57591,-0.05487 -3.15182,-0.09145 -4.74605,-0.12803c-3.13349,-0.03658 -6.28531,-0.07316 -9.43712,-0.10974c-1.55758,-0.01829 -3.11517,-0.01829 -4.67275,-0.03658c-2.9869,0.03658 -5.99211,0.07316 -8.99733,0.10974c-0.73298,0.01829 -1.46596,0.03658 -2.19894,0.03658c-1.41099,0.05487 -2.8403,0.09145 -4.25129,0.12803c-0.69633,0.01829 -1.39266,0.05487 -2.08899,0.07316c-1.33769,0.05487 -2.67538,0.10974 -4.01307,0.18289c-0.65968,0.01829 -1.30104,0.05487 -1.96072,0.09145c-1.24607,0.07316 -2.47381,0.1646 -3.70155,0.23776c-1.7225,0.14631 -3.44501,0.27434 -5.16751,0.42065c-1.75915,0.1646 -3.51831,0.32921 -5.27746,0.5121c-3.70155,0.43894 -7.42143,0.89618 -11.12298,1.33512c-1.88742,0.23776 -3.77485,0.49381 -5.64395,0.73157c-3.8848,0.56697 -7.76959,1.15223 -11.67271,1.73748c-1.9424,0.31092 -3.90312,0.60355 -5.86384,0.91446c-3.97642,0.69499 -7.95284,1.38999 -11.92926,2.08498c-1.97905,0.36579 -3.97642,0.71328 -5.95547,1.07907c-3.97642,0.78644 -7.95284,1.57288 -11.92926,2.37761c-1.96072,0.40236 -3.93977,0.80473 -5.91882,1.20709c-3.8848,0.8596 -7.76959,1.73748 -11.63606,2.59708c-1.92407,0.43894 -3.84815,0.89618 -5.77222,1.33512c-3.68323,0.91447 -7.38478,1.84722 -11.08633,2.77997c-1.81413,0.45723 -3.62825,0.93275 -5.44238,1.38999c-3.42668,0.96933 -6.85337,1.93867 -10.28005,2.908c-0.84293,0.23776 -1.66753,0.49381 -2.51046,0.73157c-1.59423,0.49381 -3.20679,0.98762 -4.80102,1.46314c-2.30889,0.74986 -4.59945,1.48143 -6.89002,2.23129c-0.49476,0.1646 -1.00785,0.32921 -1.50261,0.5121c-0.91623,0.29263 -1.85078,0.58526 -2.767,0.89618c-0.43979,0.12803 -0.87958,0.27434 -1.33769,0.42065c-0.73298,0.21947 -1.48429,0.43894 -2.21727,0.65841c-0.34817,0.10974 -0.69633,0.20118 -1.02617,0.31092c-0.49476,0.10974 -0.9712,0.23776 -1.44764,0.36579c-0.10995,0.01829 -0.20157,0.03658 -0.29319,0.07316c-0.1466,0.01829 -0.27487,0.03658 -0.42146,0.07316c-0.09162,0 -0.20157,0 -0.29319,0l-0.01832,-0.01829c0.01832,-0.20118 0.05497,-0.40236 0.0733,-0.60355c0.01832,-0.12803 0.05497,-0.25605 0.0733,-0.38408c0.0733,-0.43894 0.16492,-0.87789 0.23822,-1.31683c0.05497,-0.25605 0.09162,-0.5121 0.1466,-0.76815c0.20157,-1.04249 0.42146,-2.10327 0.62303,-3.16405c3.57328,-17.52115 7.36645,-35.00572 11.1413,-52.49029c6.94499,-32.22575 13.99993,-64.4332 20.96324,-96.65895c7.12823,-32.92074 14.16485,-65.85977 21.20146,-98.7988c3.86647,-17.99667 7.65965,-36.02992 11.67271,-53.99001c0.05497,-0.29263 0.12827,-0.58526 0.18325,-0.87789c0.0733,-0.29263 0.12827,-0.56697 0.20157,-0.84131c0.05497,-0.18289 0.09162,-0.38408 0.1466,-0.56697c0.05497,-0.29263 0.10995,-0.58526 0.16492,-0.87789c0.01832,-0.14631 0.03665,-0.27434 0.0733,-0.40236c0,-0.18289 0,-0.38408 0,-0.56697c-0.01832,-0.07316 -0.01832,-0.14631 -0.03665,-0.21947c-0.0733,-0.07316 -0.12827,-0.12803 -0.20157,-0.20118c-0.05497,0 -0.10995,-0.01829 -0.1466,-0.03658c-0.16492,0.05487 -0.31152,0.12803 -0.47644,0.18289c-0.09162,0.05487 -0.18325,0.10974 -0.27487,0.14631c-0.25654,0.20118 -0.53141,0.40236 -0.78795,0.60355c-0.1466,0.12803 -0.29319,0.23776 -0.42146,0.36579c-0.38481,0.3475 -0.76963,0.69499 -1.13612,1.0242c-0.20157,0.20118 -0.40314,0.38408 -0.62303,0.58526c-0.49476,0.49381 -1.00785,0.98762 -1.52093,1.48143c-1.33769,1.35341 -2.6937,2.70682 -4.03139,4.06022c-1.0445,0.95104 -2.08899,1.90209 -3.13349,2.87142c-0.54974,0.47552 -1.09947,0.96933 -1.63088,1.44485c-1.19109,1.00591 -2.36386,1.99353 -3.53663,2.98116c-0.60471,0.49381 -1.19109,0.96933 -1.7958,1.46314c-1.17277,0.91446 -2.32721,1.81064 -3.49998,2.72511c-0.29319,0.20118 -0.58638,0.42065 -0.86125,0.64013c-0.54974,0.40236 -1.09947,0.78644 -1.63088,1.1888c-0.76963,0.53039 -1.52093,1.04249 -2.29056,1.57288c-0.36649,0.23776 -0.7513,0.49381 -1.1178,0.73157c-0.69633,0.45723 -1.37434,0.91446 -2.07067,1.3717c-0.32984,0.21947 -0.67801,0.43894 -1.00785,0.65841c-0.64136,0.40236 -1.30104,0.80473 -1.96072,1.22538c-0.64136,0.40236 -1.30104,0.78644 -1.9424,1.1888c-1.39266,0.73157 -2.767,1.48143 -4.15966,2.21301c-0.36649,0.18289 -0.73298,0.36579 -1.1178,0.54868c-0.80628,0.36579 -1.63088,0.73157 -2.43716,1.09736c-0.43979,0.18289 -0.86125,0.36579 -1.28272,0.54868c-0.9712,0.38408 -1.9424,0.76815 -2.89527,1.15223c-0.51309,0.20118 -1.02617,0.40236 -1.52093,0.60355c-1.15444,0.40236 -2.32721,0.82302 -3.48166,1.24367c-0.60471,0.20118 -1.20942,0.42065 -1.83245,0.64013c-1.39266,0.45723 -2.78533,0.91447 -4.19631,1.3717c-0.73298,0.23776 -1.46596,0.47552 -2.19894,0.71328c-1.68585,0.53039 -3.37171,1.06078 -5.05756,1.57288c-0.43979,0.14631 -0.87958,0.27434 -1.31936,0.40236c-1.42931,0.43894 -2.85862,0.87789 -4.28794,1.29854c-15.94232,4.70035 -31.93962,9.14465 -47.95524,13.58895c-27.57839,7.64493 -55.21175,15.10696 -82.73516,22.91649c-2.6204,0.74986 -5.25913,1.49972 -7.87954,2.24958c-2.34554,0.69499 -4.67275,1.3717 -7.01829,2.06669c-2.08899,0.62184 -4.15966,1.26196 -6.24866,1.8838c-1.85078,0.58526 -3.68323,1.15223 -5.534,1.73748c-1.09947,0.36579 -2.19894,0.73157 -3.29841,1.07907c-0.53141,0.18289 -1.06282,0.3475 -1.59423,0.53039c-0.9712,0.32921 -1.9424,0.6767 -2.9136,1.00591c-0.47644,0.1646 -0.95287,0.32921 -1.42931,0.49381c-0.86125,0.32921 -1.7225,0.64013 -2.58376,0.95104c-0.42146,0.1646 -0.84293,0.32921 -1.24607,0.47552c-0.76963,0.31092 -1.53926,0.62184 -2.30889,0.91446c-0.38481,0.14631 -0.7513,0.31092 -1.1178,0.45723c-0.69633,0.29263 -1.39266,0.60355 -2.07067,0.89618c-0.67801,0.29263 -1.35601,0.58526 -2.0157,0.87789c-1.19109,0.60355 -2.36386,1.1888 -3.53663,1.77406c-1.64921,0.93275 -3.28009,1.86551 -4.92929,2.79826c-0.56806,0.3475 -1.15444,0.69499 -1.7225,1.04249c-1.17277,0.84131 -2.36386,1.66433 -3.53663,2.48734c-0.58638,0.43894 -1.17277,0.87789 -1.75915,1.29854c-1.17277,0.96933 -2.34554,1.95696 -3.53663,2.92629c-0.58638,0.49381 -1.17277,1.00591 -1.74083,1.49972c-1.15444,1.07907 -2.30889,2.17643 -3.46333,3.2555c-0.56806,0.56697 -1.13612,1.11565 -1.70418,1.66433c-1.09947,1.17052 -2.19894,2.34103 -3.29841,3.51155c-0.53141,0.58526 -1.08115,1.17052 -1.61256,1.77406c-1.02617,1.22538 -2.03402,2.43248 -3.04187,3.65786c-0.49476,0.60355 -0.98952,1.22538 -1.48429,1.84722c-0.91623,1.22538 -1.81413,2.46906 -2.71203,3.71273c-0.43979,0.62184 -0.87958,1.24367 -1.31936,1.86551c-0.76963,1.22538 -1.52093,2.45077 -2.29056,3.69444c-0.9712,1.79235 -1.92407,3.5847 -2.89527,5.39534c-0.12827,0.25605 -0.23822,0.5121 -0.36649,0.78644c-0.29319,0.71328 -0.56806,1.44485 -0.86125,2.17643c-0.1466,0.38408 -0.29319,0.78644 -0.43979,1.1888c-0.32984,0.95104 -0.67801,1.92038 -1.00785,2.88971c-0.16492,0.49381 -0.32984,1.00591 -0.51309,1.51801c-0.34817,1.15223 -0.71466,2.32274 -1.08115,3.47497c-0.20157,0.60355 -0.38481,1.20709 -0.56806,1.81064c-0.38481,1.31683 -0.78795,2.63366 -1.17277,3.9322c-0.20157,0.6767 -0.40314,1.35341 -0.58638,2.03011c-0.62303,2.15814 -1.22774,4.31627 -1.83245,6.47441c-0.8246,3.03602 -1.64921,6.07205 -2.47381,9.10807c-0.78795,3.10918 -1.57591,6.20007 -2.36386,9.30925c-0.20157,0.76815 -0.38481,1.5363 -0.58638,2.30445c-0.54974,2.24958 -1.09947,4.49917 -1.63088,6.73046c-0.49476,2.12156 -0.98952,4.24312 -1.48429,6.34639c-0.27487,1.29854 -0.56806,2.59708 -0.84293,3.89562c-0.1466,0.64013 -0.27487,1.26196 -0.42146,1.8838c-0.21989,1.15223 -0.45811,2.28616 -0.67801,3.4201c-0.10995,0.53039 -0.21989,1.07907 -0.32984,1.62775c-0.16492,0.93275 -0.32984,1.86551 -0.49476,2.79826c-0.0733,0.43894 -0.1466,0.87789 -0.21989,1.31683c-0.09162,0.6767 -0.18325,1.3717 -0.27487,2.06669c-0.03665,0.31092 -0.0733,0.62184 -0.10995,0.93275c0,0.42065 -0.01832,0.82302 -0.01832,1.22538c0,0.09145 0.01832,0.1646 0.01832,0.25605c0.01832,0.10974 0.05497,0.21947 0.0733,0.31092c0.0733,0.07316 0.12827,0.12803 0.20157,0.20118c0.01832,0 0.03665,0 0.05497,0c0.1466,-0.03658 0.27487,-0.05487 0.40314,-0.07316c0.09162,-0.01829 0.16492,-0.03658 0.23822,-0.05487c0.25654,-0.07316 0.51309,-0.12803 0.76963,-0.18289c0.12827,-0.03658 0.27487,-0.07316 0.42146,-0.10974c0.54974,-0.14631 1.1178,-0.29263 1.66753,-0.42065c21.43968,-5.65139 42.75108,-11.83318 64.08081,-17.86865c34.35846,-9.72991 68.73524,-19.36837 103.14867,-28.89709c12.66224,-3.51155 25.3428,-7.0048 38.04168,-10.46148c9.82194,-2.68853 19.64387,-5.34048 29.50246,-7.88269c0.73298,-0.18289 1.46596,-0.36579 2.21727,-0.54868c0.56806,-0.14631 1.13612,-0.27434 1.7225,-0.42065c0.27487,-0.05487 0.54974,-0.12803 0.84293,-0.18289c0.10995,-0.03658 0.23822,-0.05487 0.36649,-0.09145c0.16492,-0.03658 0.32984,-0.05487 0.49476,-0.09145c0.10995,0 0.21989,-0.01829 0.32984,-0.01829c0.01832,0 0.01832,0.01829 0.03665,0.01829c0,0.09145 0,0.18289 0,0.25605c0,0.05487 0,0.10974 0,0.1646c-0.01832,0.1646 -0.03665,0.32921 -0.05497,0.49381c-0.01832,0.18289 -0.03665,0.36579 -0.0733,0.54868c-0.09162,0.58526 -0.20157,1.1888 -0.29319,1.77406c-0.05497,0.32921 -0.12827,0.65841 -0.18325,0.98762c-0.16492,0.84131 -0.32984,1.7009 -0.49476,2.54221c-0.09162,0.45723 -0.18325,0.91447 -0.27487,1.35341c-0.34817,1.62775 -0.67801,3.2555 -1.02617,4.86495c-0.42146,1.8838 -0.8246,3.7676 -1.24607,5.65139c-0.60471,2.77997 -1.22774,5.55995 -1.8691,8.32163c-1.0445,4.57232 -2.10732,9.12636 -3.17014,13.6804c-0.8979,3.7676 -1.7958,7.53519 -2.71203,11.30279c-0.51309,2.13985 -1.0445,4.26141 -1.55758,6.38297c-0.49476,1.95696 -0.98952,3.91391 -1.46596,5.85258c-0.45811,1.71919 -0.8979,3.43839 -1.33769,5.13929c-0.25654,0.96933 -0.51309,1.93867 -0.76963,2.88971c-0.12827,0.45723 -0.25654,0.91447 -0.36649,1.35341c-0.21989,0.73157 -0.42146,1.46314 -0.64136,2.17643c-0.23822,0.76815 -0.49476,1.55459 -0.73298,2.32274c-0.27487,0.74986 -0.54974,1.49972 -0.80628,2.24958c-0.64136,1.46314 -1.28272,2.92629 -1.92407,4.40772c-0.32984,0.71328 -0.65968,1.44485 -1.00785,2.17643c-0.7513,1.40828 -1.50261,2.81655 -2.27224,4.24312c-0.38481,0.69499 -0.78795,1.38999 -1.17277,2.08498c-0.87958,1.35341 -1.74083,2.70682 -2.6204,4.06022c-0.45811,0.6767 -0.8979,1.33512 -1.35601,2.01182c-0.9712,1.28025 -1.96072,2.5605 -2.93192,3.84075c-0.51309,0.64013 -1.00785,1.28025 -1.52093,1.90209c-1.08115,1.20709 -2.16229,2.41419 -3.24344,3.62128c-0.54974,0.60355 -1.09947,1.1888 -1.66753,1.79235c-1.17277,1.11565 -2.34554,2.24958 -3.53663,3.36523c-0.60471,0.56697 -1.19109,1.11565 -1.7958,1.66433c-1.26439,1.0242 -2.54711,2.06669 -3.8115,3.10918c-1.99737,1.42657 -3.99474,2.87142 -5.99211,4.31627c-0.58638,0.38408 -1.19109,0.78644 -1.77748,1.1888c-1.20942,0.71328 -2.41884,1.44485 -3.64658,2.15814c-0.60471,0.36579 -1.22774,0.71328 -1.85078,1.07907c-1.39266,0.6767 -2.767,1.3717 -4.15966,2.0484c-0.36649,0.18289 -0.73298,0.3475 -1.09947,0.5121c-0.78795,0.3475 -1.57591,0.69499 -2.36386,1.04249c-0.40314,0.18289 -0.80628,0.3475 -1.20942,0.53039c-0.87958,0.3475 -1.77748,0.69499 -2.65705,1.06078c-0.45811,0.1646 -0.91623,0.3475 -1.37434,0.53039c-1.00785,0.36579 -1.99737,0.73157 -3.00522,1.11565c-0.51309,0.18289 -1.0445,0.36579 -1.55758,0.54868c-1.13612,0.40236 -2.27224,0.78644 -3.42668,1.1888c-0.58638,0.20118 -1.17277,0.38408 -1.75915,0.58526c-1.30104,0.42065 -2.60208,0.84131 -3.90312,1.26196c-0.65968,0.21947 -1.33769,0.43894 -1.99737,0.65841c-2.25391,0.69499 -4.4895,1.3717 -6.7251,2.06669c-2.52878,0.74986 -5.05756,1.51801 -7.60467,2.26787c-2.85862,0.82302 -5.71725,1.66433 -8.57587,2.48734c-24.17003,6.87678 -48.45,13.42435 -72.63836,20.22797c-16.18054,4.53575 -32.36108,9.08978 -48.48665,13.77184c-13.04705,3.78589 -26.0941,7.66322 -39.12283,11.50397c-3.57328,9.41899 -7.14656,18.85627 -10.71984,28.27526c-0.84293,2.12156 -1.66753,4.24312 -2.51046,6.34639c-0.40314,1.06078 -0.8246,2.10327 -1.24607,3.14576c-0.8246,2.01182 -1.66753,4.02365 -2.51046,6.03547c-0.42146,1.00591 -0.8246,1.99353 -1.24607,2.99945c-0.84293,1.92038 -1.68585,3.84075 -2.52878,5.76113c-0.43979,0.95104 -0.86125,1.90209 -1.28272,2.85313c-0.86125,1.82893 -1.70418,3.65786 -2.56543,5.50508c-0.86125,1.81064 -1.7225,3.62128 -2.58376,5.43192c-1.77748,3.40181 -3.55495,6.80362 -5.35076,10.20543c-0.8979,1.68262 -1.7958,3.34694 -2.6937,5.01127c-1.90575,3.16405 -3.79317,6.30981 -5.69892,9.47386c-0.95287,1.55459 -1.92407,3.10918 -2.89527,4.66377c-2.03402,2.96287 -4.08637,5.94402 -6.13871,8.92518c-1.0445,1.46314 -2.08899,2.92629 -3.13349,4.40772c-2.23559,2.85313 -4.47118,5.70626 -6.70677,8.55939c-1.13612,1.40828 -2.29056,2.81655 -3.42668,4.24312c-2.47381,2.79826 -4.92929,5.57824 -7.4031,8.3765c-3.99474,4.18825 -7.98949,8.3765 -11.98423,12.56475c-1.1178,1.11565 -2.25391,2.24958 -3.37171,3.36523c-2.30889,2.15814 -4.6361,4.31627 -6.96331,6.47441c-1.15444,1.06078 -2.32721,2.12156 -3.49998,3.18234c-2.41884,2.0484 -4.83767,4.07851 -7.25651,6.12692c-1.22774,1.00591 -2.45548,2.01182 -3.6649,3.01773c-2.52878,1.92038 -5.03924,3.84075 -7.56802,5.76113c-1.26439,0.93275 -2.54711,1.8838 -3.8115,2.83484c-2.6204,1.79235 -5.24081,3.60299 -7.86121,5.41363c-1.31936,0.87789 -2.63873,1.77406 -3.95809,2.65195c-2.73035,1.68262 -5.44238,3.36523 -8.17273,5.06614c-1.37434,0.82302 -2.74868,1.64604 -4.12301,2.48734c-2.82197,1.55459 -5.64395,3.12747 -8.46592,4.70035c-1.42931,0.76815 -2.85862,1.5363 -4.26961,2.30445c-2.93192,1.46314 -5.86384,2.908 -8.79576,4.37114c-1.46596,0.71328 -2.95025,1.40828 -4.41621,2.12156c-3.04187,1.33512 -6.06541,2.68853 -9.10728,4.02365c-1.52093,0.64013 -3.04187,1.29854 -4.58113,1.95696c-3.13349,1.22538 -6.26698,2.43248 -9.40047,3.65786c-1.59423,0.60355 -3.17014,1.1888 -4.74605,1.79235c-3.24344,1.09736 -6.48688,2.21301 -9.73031,3.31036c-1.63088,0.54868 -3.26176,1.07907 -4.89264,1.62775c-3.35339,0.98762 -6.70677,1.97524 -10.06016,2.96287c-1.68585,0.47552 -3.37171,0.95104 -5.05756,1.44485c-3.44501,0.87789 -6.90834,1.73748 -10.35335,2.61537c-1.74083,0.42065 -3.48166,0.8596 -5.24081,1.28025c-3.55495,0.74986 -7.10991,1.51801 -10.68319,2.28616c-1.7958,0.36579 -3.5916,0.73157 -5.38741,1.09736c-3.6649,0.64013 -7.34813,1.28025 -11.01303,1.93867c-1.85078,0.31092 -3.70155,0.60355 -5.55233,0.91446c-3.77485,0.54868 -7.56802,1.07907 -11.34287,1.60946c-5.79055,0.65841 -11.59941,1.33512 -17.38996,2.01182c-7.23818,0.73157 -14.45804,1.44485 -21.69622,2.17643c-3.26176,8.12045 -6.52353,16.22261 -9.80361,24.34306c-1.37434,3.27378 -2.767,6.56586 -4.15966,9.83964c-0.71466,1.62775 -1.41099,3.2555 -2.10732,4.88324c-1.44764,3.16405 -2.87695,6.34639 -4.32458,9.51044c-0.73298,1.57288 -1.44764,3.14576 -2.18062,4.71864c-1.48429,3.05431 -2.96857,6.10863 -4.45286,9.16294c-0.7513,1.51801 -1.48429,3.03602 -2.23559,4.53575c-1.52093,2.94458 -3.04187,5.87087 -4.58113,8.79715c-0.7513,1.46314 -1.52093,2.908 -2.29056,4.35285c-1.55758,2.81655 -3.11517,5.61482 -4.67275,8.41308c-0.76963,1.38999 -1.55758,2.77997 -2.34554,4.15167c-1.57591,2.67024 -3.17014,5.34048 -4.74605,7.99242c-0.80628,1.31683 -1.59423,2.63366 -2.38219,3.95049c-1.61256,2.52392 -3.22511,5.02956 -4.81935,7.55348c-0.80628,1.24367 -1.61256,2.48734 -2.41884,3.71273c-1.63088,2.37761 -3.26176,4.73693 -4.87432,7.11454c-0.8246,1.15223 -1.63088,2.32274 -2.45548,3.47497c-1.63088,2.21301 -3.26176,4.40772 -4.91097,6.62073c-0.80628,1.07907 -1.63088,2.15814 -2.45548,3.23721c-1.63088,2.0484 -3.28009,4.07851 -4.92929,6.10863c-0.8246,1.00591 -1.64921,1.99353 -2.45548,2.99945c-1.64921,1.86551 -3.29841,3.71273 -4.94762,5.57824c-0.8246,0.91446 -1.64921,1.81064 -2.45548,2.72511c-1.64921,1.68262 -3.29841,3.36523 -4.92929,5.02956c-0.8246,0.82302 -1.64921,1.62775 -2.45548,2.45077c-1.64921,1.48143 -3.28009,2.98116 -4.91097,4.46259c-0.80628,0.71328 -1.63088,1.42657 -2.43716,2.15814c-1.61256,1.28025 -3.24344,2.57879 -4.856,3.85904c-0.80628,0.62184 -1.61256,1.24367 -2.41884,1.84722c-1.59423,1.09736 -3.20679,2.17643 -4.80102,3.2555c-2.36386,1.38999 -4.74605,2.76168 -7.10991,4.15167c-0.58638,0.29263 -1.15444,0.60355 -1.74083,0.89618c-1.22774,0.56697 -2.43716,1.11565 -3.6649,1.68262c-0.62303,0.27434 -1.24607,0.54868 -1.8691,0.82302c-1.28272,0.5121 -2.58376,1.00591 -3.86647,1.51801c-1.30104,0.49381 -2.60208,0.98762 -3.90312,1.46314c-2.6937,0.78644 -5.38741,1.57288 -8.08111,2.35932c-0.67801,0.18289 -1.35601,0.36579 -2.03402,0.53039c-1.33769,0.31092 -2.67538,0.60355 -4.01307,0.89618c-0.65968,0.14631 -1.31936,0.27434 -1.99737,0.42065c-1.30104,0.21947 -2.60208,0.42065 -3.90312,0.64013c-0.64136,0.09145 -1.28272,0.20118 -1.92407,0.29263c-1.24607,0.12803 -2.49213,0.25605 -3.7382,0.38408c-1.77748,0.07316 -3.53663,0.14631 -5.31411,0.23776c-0.27487,0 -0.56806,0 -0.84293,0c-0.47644,0 -0.95287,-0.01829 -1.42931,-0.01829c-0.21989,0 -0.45811,0 -0.67801,-0.01829c-0.36649,-0.01829 -0.73298,-0.03658 -1.1178,-0.05487c-0.16492,-0.01829 -0.34817,-0.03658 -0.51309,-0.05487c-0.27487,-0.03658 -0.54974,-0.09145 -0.8246,-0.12803c-0.12827,-0.01829 -0.25654,-0.05487 -0.38481,-0.07316c-0.20157,-0.07316 -0.38481,-0.14631 -0.56806,-0.20118c-0.18325,-0.09145 -0.34817,-0.1646 -0.51309,-0.23776c-0.12827,-0.23776 -0.25654,-0.49381 -0.38481,-0.73157c-0.03665,-0.14631 -0.0733,-0.29263 -0.10995,-0.43894c0.09162,-0.40236 0.16492,-0.80473 0.25654,-1.20709c0.01832,-0.03658 0.01832,-0.07316 0.03665,-0.10974c0.0733,-0.20118 0.12827,-0.38408 0.20157,-0.58526c0.05497,-0.10974 0.09162,-0.23776 0.12827,-0.3475c0.21989,-0.53039 0.42146,-1.07907 0.64136,-1.60946c5.7539,-14.5217 11.76434,-28.93367 17.73813,-43.38222c9.62037,-23.30057 19.33236,-46.56456 28.98937,-69.86513c9.21723,-22.27637 18.45278,-44.58931 27.63336,-66.88397c6.70677,-16.31406 13.37689,-32.62811 20.24858,-48.86901c0.86125,-2.01182 1.7225,-4.02365 2.60208,-6.03547c0.7513,-1.73748 1.52093,-3.47497 2.27224,-5.21245c0.45811,-0.98762 0.91623,-1.99353 1.35601,-2.99945c0.21989,-0.47552 0.43979,-0.95104 0.65968,-1.42657c0.38481,-0.84131 0.78795,-1.68262 1.19109,-2.52392c0.18325,-0.40236 0.38481,-0.80473 0.56806,-1.20709c0.34817,-0.69499 0.69633,-1.38999 1.0445,-2.08498c0.16492,-0.3475 0.32984,-0.6767 0.49476,-1.00591c0.31152,-0.56697 0.60471,-1.13394 0.91623,-1.68262c0.1466,-0.27434 0.29319,-0.54868 0.43979,-0.80473c0.27487,-0.45723 0.53141,-0.89618 0.80628,-1.35341c0.12827,-0.20118 0.25654,-0.42065 0.38481,-0.62184c0.23822,-0.3475 0.47644,-0.69499 0.71466,-1.04249c0.10995,-0.1646 0.23822,-0.31092 0.34817,-0.47552c0.21989,-0.25605 0.42146,-0.5121 0.64136,-0.76815c0.10995,-0.10974 0.21989,-0.23776 0.31152,-0.3475c0.20157,-0.18289 0.40314,-0.3475 0.60471,-0.53039c0.56806,-0.31092 1.1178,-0.62184 1.68585,-0.93275c0.0733,-0.01829 0.1466,-0.05487 0.21989,-0.07316c0.23822,-0.05487 0.45811,-0.10974 0.69633,-0.1646c0.10995,-0.03658 0.23822,-0.07316 0.36649,-0.09145c0.32984,-0.07316 0.64136,-0.14631 0.9712,-0.21947c0.34817,-0.07316 0.67801,-0.14631 1.02617,-0.21947c0.8979,-0.1646 1.81413,-0.32921 2.71203,-0.5121c0.47644,-0.09145 0.9712,-0.18289 1.44764,-0.25605c1.08115,-0.20118 2.18062,-0.38408 3.26176,-0.58526c1.7225,-0.27434 3.44501,-0.56697 5.16751,-0.84131c1.1178,-0.18289 2.23559,-0.3475 3.35339,-0.53039c2.29056,-0.53039 4.58113,-1.07907 6.89002,-1.60946c1.15444,-0.31092 2.30889,-0.60355 3.46333,-0.89618c2.32721,-0.76815 4.65443,-1.5363 6.98164,-2.30445c1.17277,-0.40236 2.34554,-0.82302 3.49998,-1.22538c2.30889,-0.96933 4.61778,-1.92038 6.92666,-2.88971c1.13612,-0.5121 2.29056,-1.00591 3.42668,-1.51801c2.21727,-1.11565 4.45286,-2.24958 6.67012,-3.36523c1.09947,-0.58526 2.19894,-1.17052 3.28009,-1.75577c2.08899,-1.24367 4.15966,-2.50563 6.23033,-3.7676c1.02617,-0.64013 2.03402,-1.28025 3.06019,-1.92038c1.8691,-1.3717 3.7382,-2.72511 5.6073,-4.07851c0.91623,-0.69499 1.81413,-1.38999 2.71203,-2.06669c1.61256,-1.42657 3.22511,-2.85313 4.83767,-4.2797c0.36649,-0.36579 0.7513,-0.71328 1.13612,-1.07907c0.71466,-0.73157 1.41099,-1.46314 2.12564,-2.17643c0.95287,-1.09736 1.92407,-2.19472 2.87695,-3.29207c0.54974,-0.6767 1.09947,-1.35341 1.64921,-2.0484c1.0445,-1.42657 2.08899,-2.87142 3.11517,-4.29799c0.51309,-0.73157 1.02617,-1.46314 1.53926,-2.19472c0.93455,-1.5363 1.88742,-3.0726 2.8403,-4.6089c0.45811,-0.78644 0.93455,-1.55459 1.39266,-2.34103c0.86125,-1.64604 1.7225,-3.27378 2.58376,-4.90153c0.42146,-0.84131 0.84293,-1.66433 1.26439,-2.48734c0.76963,-1.73748 1.53926,-3.47497 2.30889,-5.21245c0.36649,-0.87789 0.73298,-1.75577 1.1178,-2.63366c0.67801,-1.81064 1.35601,-3.63957 2.03402,-5.4685c0.32984,-0.93275 0.65968,-1.84722 0.98952,-2.77997c0.58638,-1.92038 1.17277,-3.84075 1.75915,-5.76113c0.29319,-0.96933 0.56806,-1.93867 0.84293,-2.908c0.49476,-2.01182 0.98952,-4.02365 1.50261,-6.03547c0.62303,-3.10918 1.26439,-6.23665 1.90575,-9.34583c0.03665,-0.23776 0.09162,-0.49381 0.12827,-0.73157c0.10995,-0.71328 0.20157,-1.40828 0.31152,-2.12156c0.05497,-0.38408 0.10995,-0.76815 0.16492,-1.15223c0.10995,-0.96933 0.23822,-1.92038 0.36649,-2.88971c0.05497,-0.49381 0.10995,-1.00591 0.18325,-1.51801c0.20157,-1.77406 0.40314,-3.54812 0.60471,-5.32219c0.21989,-2.03011 0.42146,-4.04194 0.64136,-6.07205c0.21989,-2.21301 0.43979,-4.42601 0.65968,-6.63902c0.1466,-1.55459 0.29319,-3.09089 0.43979,-4.64548c0.42146,-4.7918 0.84293,-9.5653 1.26439,-14.33881c0.10995,-1.33512 0.21989,-2.67024 0.32984,-4.00536c0.32984,-3.80417 0.67801,-7.60835 1.00785,-11.41252c0.36649,-3.5847 0.71466,-7.16941 1.08115,-10.75411c0.25654,-2.26787 0.49476,-4.55404 0.7513,-6.82191c0.12827,-1.11565 0.25654,-2.23129 0.38481,-3.34694c0.27487,-2.15814 0.53141,-4.31627 0.80628,-6.45612c0.12827,-1.06078 0.27487,-2.12156 0.40314,-3.20063c0.29319,-2.03011 0.56806,-4.07851 0.86125,-6.12692c0.1466,-1.00591 0.29319,-2.01182 0.43979,-3.01773c0.31152,-1.95696 0.62303,-3.91391 0.93455,-5.85258c0.1466,-0.96933 0.31152,-1.93867 0.47644,-2.88971c0.32984,-1.8838 0.65968,-3.74931 0.98952,-5.61482c0.18325,-0.91447 0.34817,-1.84722 0.51309,-2.76168c0.36649,-1.81064 0.73298,-3.60299 1.08115,-5.39534c0.36649,-1.79235 0.73298,-3.56641 1.1178,-5.35876c0.8246,-3.4201 1.64921,-6.82191 2.47381,-10.24201c0.43979,-1.68262 0.86125,-3.36523 1.30104,-5.06614c0.9712,-3.29207 1.9424,-6.60244 2.9136,-9.89451c0.51309,-1.64604 1.00785,-3.29207 1.52093,-4.93811c1.13612,-3.27378 2.27224,-6.56586 3.40836,-9.85793c1.90575,-5.02956 3.8115,-10.04083 5.71725,-15.07038c0.71466,-1.77406 1.41099,-3.52983 2.12564,-5.28561c1.48429,-3.40181 2.9869,-6.82191 4.47118,-10.22372c0.76963,-1.68262 1.53926,-3.36523 2.29056,-5.04785c1.61256,-3.2555 3.22511,-6.51099 4.83767,-9.76649c0.8246,-1.60946 1.64921,-3.21892 2.47381,-4.82838c1.74083,-3.12747 3.48166,-6.23665 5.22249,-9.36412c0.87958,-1.55459 1.75915,-3.09089 2.65705,-4.64548c1.88742,-3.01773 3.75652,-6.01718 5.64395,-9.03491c0.95287,-1.48143 1.92407,-2.98116 2.87695,-4.48088c2.03402,-2.908 4.06804,-5.816 6.10206,-8.74229c1.02617,-1.44485 2.07067,-2.88971 3.09684,-4.33456c2.19894,-2.83484 4.39788,-5.66968 6.59682,-8.50452c1.1178,-1.40828 2.23559,-2.81655 3.35339,-4.22483c2.36386,-2.77997 4.74605,-5.55995 7.10991,-8.32163c3.75652,-4.11509 7.53137,-8.23019 11.2879,-12.34528c1.15444,-1.20709 2.30889,-2.43248 3.48166,-3.63957c2.38219,-2.35932 4.76437,-4.70035 7.14656,-7.05967c1.19109,-1.17052 2.40051,-2.34103 3.60993,-3.51155c2.47381,-2.26787 4.94762,-4.53575 7.42143,-6.80362c1.24607,-1.11565 2.49213,-2.24958 3.7382,-3.36523c2.56543,-2.17643 5.13086,-4.37114 7.69629,-6.54757c1.28272,-1.07907 2.58376,-2.15814 3.86647,-3.23721c2.65705,-2.08498 5.31411,-4.18825 7.97116,-6.27323c1.33769,-1.04249 2.67538,-2.08498 4.01307,-3.10918c2.74868,-2.01182 5.49735,-4.02365 8.24603,-6.03547c1.39266,-0.98762 2.767,-1.97524 4.15966,-2.98116c2.8403,-1.92038 5.6806,-3.84075 8.5209,-5.76113c1.42931,-0.95104 2.85862,-1.90209 4.28794,-2.85313c2.93192,-1.82893 5.86384,-3.65786 8.81409,-5.50508c1.46596,-0.89618 2.95025,-1.81064 4.43453,-2.72511c3.02354,-1.73748 6.04709,-3.49326 9.08896,-5.24903c1.52093,-0.8596 3.04187,-1.73748 4.58113,-2.59708c3.11517,-1.66433 6.24866,-3.32865 9.36382,-4.99298c1.57591,-0.82302 3.15182,-1.64604 4.72772,-2.46906c3.22511,-1.59117 6.45023,-3.16405 9.65702,-4.75522c1.63088,-0.78644 3.24344,-1.55459 4.87432,-2.34103c3.31674,-1.49972 6.63347,-2.99945 9.95021,-4.49917c1.68585,-0.73157 3.35339,-1.48143 5.02092,-2.21301c3.42668,-1.40828 6.83504,-2.83484 10.26173,-4.24312c1.70418,-0.69499 3.42668,-1.40828 5.14919,-2.10327c3.51831,-1.33512 7.03661,-2.67024 10.55492,-3.98707c1.77748,-0.65841 3.53663,-1.31683 5.31411,-1.97524c3.60993,-1.26196 7.23818,-2.50563 10.84811,-3.74931c1.81413,-0.62184 3.64658,-1.24367 5.4607,-1.84722c3.71988,-1.17052 7.43975,-2.34103 11.1413,-3.51155c5.69892,-1.66433 11.39785,-3.32865 17.07844,-4.99298c40.35057,-11.21134 80.62784,-22.66044 120.92344,-34.07297c34.10191,-9.65675 68.22215,-19.24034 102.25077,-29.13485c1.7225,-0.53039 3.42668,-1.06078 5.14919,-1.57288c0.84293,-0.27434 1.66753,-0.53039 2.51046,-0.80473c1.59423,-0.53039 3.20679,-1.06078 4.80102,-1.59117c0.76963,-0.27434 1.55758,-0.53039 2.34554,-0.80473c1.48429,-0.53039 2.96857,-1.07907 4.45286,-1.62775c0.73298,-0.25605 1.46596,-0.53039 2.19894,-0.80473c1.37434,-0.56697 2.74868,-1.11565 4.14134,-1.66433c0.67801,-0.27434 1.35601,-0.56697 2.0157,-0.84131c1.28272,-0.56697 2.56543,-1.13394 3.84815,-1.7009c0.62303,-0.29263 1.24607,-0.58526 1.88742,-0.8596c1.17277,-0.60355 2.36386,-1.1888 3.53663,-1.77406c0.58638,-0.29263 1.15444,-0.58526 1.74083,-0.89618c1.09947,-0.60355 2.18062,-1.20709 3.28009,-1.82893c0.53141,-0.31092 1.06282,-0.60355 1.59423,-0.91446c1.00785,-0.64013 2.0157,-1.28025 3.02354,-1.90209c0.47644,-0.32921 0.9712,-0.65841 1.46596,-0.96933c0.93455,-0.65841 1.85078,-1.33512 2.767,-1.99353c0.45811,-0.32921 0.8979,-0.6767 1.35601,-1.00591c0.84293,-0.69499 1.68585,-1.38999 2.52878,-2.08498c0.84293,-0.69499 1.66753,-1.40828 2.49213,-2.10327c1.42931,-1.51801 2.87695,-3.01773 4.32458,-4.53575c0.67801,-0.76815 1.37434,-1.55459 2.07067,-2.32274c1.19109,-1.68262 2.38219,-3.34694 3.57328,-5.02956c1.55758,-2.72511 3.11517,-5.45021 4.67275,-8.17532c0.18325,-0.36579 0.34817,-0.73157 0.53141,-1.07907c0.31152,-0.6767 0.60471,-1.33512 0.91623,-1.99353c0.1466,-0.32921 0.27487,-0.64013 0.42146,-0.96933c0.23822,-0.60355 0.49476,-1.20709 0.73298,-1.82893c0.21989,-0.58526 0.45811,-1.1888 0.67801,-1.79235c0.29319,-1.15223 0.58638,-2.32274 0.8979,-3.47497c0.12827,-0.58526 0.23822,-1.1888 0.36649,-1.77406c0.1466,-1.33512 0.27487,-2.67024 0.40314,-4.00536c0.03665,-0.3475 0.05497,-0.71328 0.0733,-1.06078c0.03665,-0.78644 0.0733,-1.57288 0.09162,-2.35932c0.01832,-1.31683 0.03665,-2.63366 0.05497,-3.95049c0,-0.69499 0,-1.3717 0,-2.06669c-0.05497,-1.26196 -0.12827,-2.50563 -0.18325,-3.7676c-0.05497,-0.62184 -0.09162,-1.22538 -0.12827,-1.84722c-0.16492,-1.13394 -0.32984,-2.26787 -0.49476,-3.40181c-0.09162,-0.54868 -0.18325,-1.09736 -0.27487,-1.64604c-0.25654,-1.0242 -0.53141,-2.06669 -0.78795,-3.09089c-0.1466,-0.49381 -0.29319,-1.00591 -0.43979,-1.49972c-0.38481,-0.95104 -0.76963,-1.8838 -1.13612,-2.83484c-0.21989,-0.45723 -0.42146,-0.93275 -0.62303,-1.38999c-0.51309,-0.87789 -1.00785,-1.75577 -1.52093,-2.65195c-0.27487,-0.42065 -0.53141,-0.8596 -0.80628,-1.29854c-0.64136,-0.84131 -1.28272,-1.68262 -1.92407,-2.52392c-0.34817,-0.42065 -0.67801,-0.84131 -1.02617,-1.26196c-0.78795,-0.82302 -1.55758,-1.64604 -2.34554,-2.48734c-1.35601,-1.24367 -2.71203,-2.48734 -4.06804,-3.73102c-0.64136,-0.54868 -1.26439,-1.09736 -1.90575,-1.62775c-1.26439,-0.93275 -2.51046,-1.86551 -3.77485,-2.79826c-0.64136,-0.45723 -1.28272,-0.89618 -1.92407,-1.33512c-1.39266,-0.74986 -2.78533,-1.51801 -4.17799,-2.26787c-0.34817,-0.18289 -0.71466,-0.36579 -1.08115,-0.54868c-0.78795,-0.32921 -1.57591,-0.65841 -2.34554,-0.98762c-0.40314,-0.1646 -0.80628,-0.32921 -1.20942,-0.49381c-0.87958,-0.29263 -1.75915,-0.60355 -2.6204,-0.89618c-0.45811,-0.14631 -0.91623,-0.29263 -1.35601,-0.43894c-0.98952,-0.27434 -1.97905,-0.54868 -2.96857,-0.82302c-0.51309,-0.14631 -1.02617,-0.27434 -1.53926,-0.40236c-1.1178,-0.25605 -2.23559,-0.5121 -3.37171,-0.76815c-0.56806,-0.10974 -1.15444,-0.23776 -1.74083,-0.36579c-1.26439,-0.23776 -2.54711,-0.47552 -3.82982,-0.69499c-0.65968,-0.12803 -1.31936,-0.23776 -1.97905,-0.3475c-1.46596,-0.21947 -2.9136,-0.43894 -4.37956,-0.65841c-0.7513,-0.10974 -1.50261,-0.21947 -2.25391,-0.32921c-1.66753,-0.21947 -3.31674,-0.43894 -4.96594,-0.64013c-0.86125,-0.10974 -1.7225,-0.21947 -2.56543,-0.31092c-1.88742,-0.21947 -3.75652,-0.42065 -5.62562,-0.62184c-0.9712,-0.10974 -1.9424,-0.21947 -2.9136,-0.31092c-3.20679,-0.32921 -6.41358,-0.64013 -9.62037,-0.95104c-3.60993,-0.31092 -7.21986,-0.64013 -10.81146,-0.95104c-8.4476,-0.71328 -16.8952,-1.38999 -25.3428,-2.06669c-4.21464,-0.3475 -8.41095,-0.69499 -12.62559,-1.04249c-5.44238,-0.49381 -10.88476,-0.96933 -16.32714,-1.46314c-5.18584,-0.53039 -10.37167,-1.06078 -15.55751,-1.57288c-2.56543,-0.27434 -5.11254,-0.53039 -7.67797,-0.80473c-4.87432,-0.56697 -9.76696,-1.13394 -14.65961,-1.71919c-2.40051,-0.29263 -4.81935,-0.58526 -7.23818,-0.87789c-4.59945,-0.62184 -9.21723,-1.24367 -13.83501,-1.86551c-2.29056,-0.31092 -4.5628,-0.64013 -6.83504,-0.95104c-4.37956,-0.69499 -8.74079,-1.3717 -13.12035,-2.06669c-2.14397,-0.3475 -4.30626,-0.69499 -6.46855,-1.04249c-4.14134,-0.74986 -8.28268,-1.49972 -12.44234,-2.24958c-2.03402,-0.38408 -4.08637,-0.76815 -6.13871,-1.15223c-3.93977,-0.82302 -7.87954,-1.64604 -11.83763,-2.46906c-1.9424,-0.42065 -3.90312,-0.84131 -5.84552,-1.26196c-3.77485,-0.89618 -7.5497,-1.79235 -11.30622,-2.68853c-1.8691,-0.45723 -3.7382,-0.91447 -5.6073,-1.3717c-3.60993,-0.98762 -7.23818,-1.97524 -10.84811,-2.94458c-1.7958,-0.5121 -3.5916,-1.00591 -5.38741,-1.51801c-3.48166,-1.06078 -6.96331,-2.13985 -10.4633,-3.20063c-1.7225,-0.54868 -3.46333,-1.09736 -5.18584,-1.64604c-3.39003,-1.17052 -6.78007,-2.32274 -10.1701,-3.49326c-1.66753,-0.60355 -3.35339,-1.1888 -5.03924,-1.79235c-3.29841,-1.26196 -6.61515,-2.52392 -9.91356,-3.78589c-1.64921,-0.65841 -3.29841,-1.29854 -4.92929,-1.93867c-3.26176,-1.38999 -6.5052,-2.76168 -9.74864,-4.13338c-1.63088,-0.69499 -3.24344,-1.38999 -4.856,-2.10327c-3.22511,-1.48143 -6.4319,-2.96287 -9.65702,-4.4443c-1.59423,-0.76815 -3.20679,-1.51801 -4.81935,-2.26787c-3.20679,-1.60946 -6.41358,-3.21892 -9.62037,-4.82838c-4.81935,-2.54221 -9.65702,-5.08443 -14.47636,-7.62664c-1.06282,-0.58526 -2.12564,-1.15223 -3.18846,-1.73748c-2.12564,-1.22538 -4.26961,-2.45077 -6.41358,-3.67615c-1.06282,-0.62184 -2.14397,-1.24367 -3.20679,-1.8838c-2.16229,-1.29854 -4.30626,-2.61537 -6.46855,-3.9322c-2.14397,-1.31683 -4.30626,-2.65195 -6.45023,-3.98707c-4.28794,-2.87142 -8.5942,-5.74284 -12.88213,-8.61426c-2.14397,-1.46314 -4.28794,-2.92629 -6.41358,-4.38943c-4.19631,-3.09089 -8.39263,-6.18178 -12.58894,-9.27268c-2.08899,-1.55459 -4.15966,-3.12747 -6.24866,-4.68206c-3.99474,-3.23721 -8.00781,-6.45612 -12.02088,-9.69333c-1.96072,-1.60946 -3.93977,-3.23721 -5.91882,-4.86495c-3.71988,-3.29207 -7.43975,-6.58415 -11.17795,-9.87622c-0.8979,-0.82302 -1.81413,-1.64604 -2.73035,-2.46906c-1.74083,-1.64604 -3.49998,-3.29207 -5.25913,-4.93811c-0.86125,-0.82302 -1.7225,-1.64604 -2.58376,-2.46906c-1.64921,-1.62775 -3.29841,-3.27378 -4.94762,-4.90153c-0.80628,-0.82302 -1.63088,-1.62775 -2.43716,-2.45077c-1.53926,-1.60946 -3.07852,-3.23721 -4.61778,-4.84666c-0.7513,-0.80473 -1.50261,-1.60946 -2.25391,-2.41419c-1.41099,-1.59117 -2.82197,-3.18234 -4.23296,-4.77351c-0.69633,-0.78644 -1.39266,-1.57288 -2.07067,-2.35932c-1.28272,-1.55459 -2.56543,-3.10918 -3.82982,-4.64548c-1.75915,-2.28616 -3.49998,-4.55404 -5.25913,-6.82191c-1.85078,-2.52392 -3.70155,-5.06614 -5.55233,-7.59006c7.4031,-1.35341 14.82453,-2.72511 22.22763,-4.07851c3.93977,-0.65841 7.87954,-1.31683 11.81931,-1.97524c1.97905,-0.31092 3.97642,-0.62184 5.95547,-0.95104c4.03139,-0.58526 8.04446,-1.17052 12.07585,-1.73748c2.03402,-0.29263 4.04972,-0.56697 6.06541,-0.8596c4.10469,-0.5121 8.20938,-1.0242 12.29575,-1.5363c2.05235,-0.23776 4.12301,-0.49381 6.17536,-0.73157c4.14134,-0.43894 8.28268,-0.87789 12.44234,-1.31683c4.14134,-0.42065 8.301,-0.84131 12.46067,-1.26196c8.3743,-0.62184 16.7486,-1.22538 25.1229,-1.84722c4.19631,-0.27434 8.3743,-0.54868 12.57061,-0.82302c8.31933,-0.32921 16.63866,-0.64013 24.95798,-0.96933c2.07067,-0.05487 4.14134,-0.10974 6.21201,-0.18289c4.10469,-0.05487 8.20938,-0.12803 12.31407,-0.18289c2.03402,-0.03658 4.08637,-0.05487 6.12039,-0.07316c4.04972,0 8.08111,0.01829 12.1125,0.01829zM274.19069,1017.18226c0.1466,0.01829 0.27487,0.01829 0.42146,0.03658c0.20157,0.05487 0.42146,0.10974 0.62303,0.1646c0.09162,0.03658 0.18325,0.07316 0.29319,0.10974c0.12827,0.09145 0.27487,0.20118 0.40314,0.31092c0.05497,0.07316 0.12827,0.12803 0.18325,0.18289c0.05497,0.1646 0.12827,0.32921 0.20157,0.49381c0.01832,0.09145 0.03665,0.18289 0.0733,0.27434c0,0.21947 0,0.43894 0,0.6767c0,0.10974 -0.01832,0.23776 -0.01832,0.36579c-0.05497,0.27434 -0.12827,0.56697 -0.18325,0.8596c-0.03665,0.1646 -0.0733,0.31092 -0.10995,0.45723c-0.10995,0.36579 -0.21989,0.73157 -0.34817,1.09736c-0.05497,0.18289 -0.12827,0.36579 -0.18325,0.56697c-0.16492,0.42065 -0.32984,0.8596 -0.51309,1.29854c-0.0733,0.21947 -0.16492,0.45723 -0.25654,0.6767c-0.21989,0.5121 -0.43979,1.0242 -0.64136,1.55459c-0.10995,0.25605 -0.23822,0.53039 -0.34817,0.78644c-0.8979,2.08498 -1.7958,4.16996 -2.67538,6.25494c-0.51309,1.13394 -1.02617,2.26787 -1.52093,3.40181c-0.27487,0.60355 -0.54974,1.1888 -0.80628,1.77406c-0.93455,1.99353 -1.85078,3.96878 -2.78533,5.94402c-1.06282,2.21301 -2.12564,4.40772 -3.17014,6.60244c-1.17277,2.37761 -2.34554,4.73693 -3.49998,7.11454c-1.26439,2.48734 -2.51046,4.99298 -3.75652,7.48032c-1.75915,3.45668 -3.49998,6.89507 -5.25913,10.33345c-2.73035,5.24903 -5.4607,10.49806 -8.19106,15.7288c-2.23559,4.16996 -4.45286,8.35821 -6.70677,12.50988c-1.26439,2.34103 -2.52878,4.68206 -3.8115,7.02309c-1.19109,2.15814 -2.40051,4.31627 -3.5916,6.45612c-1.09947,1.93867 -2.19894,3.87733 -3.29841,5.79771c-0.64136,1.13394 -1.30104,2.24958 -1.96072,3.38352c-0.31152,0.53039 -0.64136,1.06078 -0.95287,1.60946c-0.56806,0.91447 -1.1178,1.82893 -1.68585,2.74339c-0.71466,1.11565 -1.42931,2.23129 -2.14397,3.34694c-0.45811,0.6767 -0.91623,1.33512 -1.35601,2.01182c-0.98952,1.31683 -1.96072,2.63366 -2.93192,3.9322c-0.51309,0.65841 -1.00785,1.29854 -1.50261,1.95696c-1.06282,1.26196 -2.12564,2.50563 -3.17014,3.7676c-0.54974,0.62184 -1.08115,1.24367 -1.61256,1.86551c-1.13612,1.1888 -2.25391,2.37761 -3.37171,3.56641c-0.56806,0.58526 -1.13612,1.17052 -1.70418,1.75577c-1.17277,1.09736 -2.34554,2.21301 -3.51831,3.31036c-0.58638,0.54868 -1.19109,1.09736 -1.77748,1.62775c-1.20942,1.0242 -2.41884,2.03011 -3.62825,3.03602c-0.60471,0.49381 -1.20942,0.98762 -1.81413,1.48143c-1.22774,0.89618 -2.47381,1.81064 -3.70155,2.70682c-0.60471,0.43894 -1.22774,0.87789 -1.83245,1.31683c-1.24607,0.78644 -2.47381,1.57288 -3.71988,2.34103c-1.85078,1.0242 -3.68323,2.0484 -5.534,3.0726c-0.34817,0.1646 -0.69633,0.3475 -1.0445,0.5121c-0.93455,0.47552 -1.88742,0.93275 -2.82197,1.38999c-0.56806,0.25605 -1.1178,0.53039 -1.66753,0.78644c-0.27487,0.12803 -0.54974,0.25605 -0.8246,0.38408c-0.47644,0.20118 -0.9712,0.42065 -1.44764,0.64013c-0.23822,0.09145 -0.47644,0.20118 -0.71466,0.29263c-0.42146,0.1646 -0.84293,0.32921 -1.26439,0.47552c-0.20157,0.09145 -0.40314,0.1646 -0.60471,0.23776c-0.34817,0.09145 -0.71466,0.20118 -1.08115,0.31092c-0.16492,0.05487 -0.32984,0.09145 -0.51309,0.14631c-0.29319,0.03658 -0.60471,0.09145 -0.8979,0.14631c-0.29319,0.03658 -0.58638,0.05487 -0.87958,0.09145c-0.42146,-0.10974 -0.84293,-0.21947 -1.28272,-0.32921c-0.18325,-0.07316 -0.38481,-0.1646 -0.56806,-0.25605c-0.25654,-0.36579 -0.53141,-0.73157 -0.78795,-1.09736c-0.12827,-0.20118 -0.23822,-0.42065 -0.34817,-0.64013c-0.1466,-0.64013 -0.27487,-1.28025 -0.42146,-1.90209c-0.05497,-0.36579 -0.10995,-0.71328 -0.16492,-1.06078c-0.05497,-0.93275 -0.10995,-1.86551 -0.1466,-2.77997c-0.01832,-0.5121 -0.03665,-1.00591 -0.05497,-1.51801c-0.01832,-1.22538 -0.01832,-2.46906 -0.01832,-3.69444c0,-1.3717 0,-2.7434 0,-4.11509c0.12827,-2.70682 0.27487,-5.39534 0.40314,-8.08387c0.09162,-1.35341 0.18325,-2.68853 0.27487,-4.04194c0.31152,-2.68853 0.64136,-5.37705 0.9712,-8.08387c0.18325,-1.35341 0.38481,-2.70682 0.56806,-4.06022c0.53141,-2.77997 1.08115,-5.54166 1.63088,-8.32163c0.29319,-1.40828 0.58638,-2.81655 0.8979,-4.22483c0.76963,-2.92629 1.55758,-5.87087 2.34554,-8.81544c0.20157,-0.74986 0.42146,-1.49972 0.62303,-2.24958c0.47644,-1.5363 0.95287,-3.09089 1.41099,-4.62719c0.25654,-0.76815 0.49476,-1.55459 0.73298,-2.34103c0.54974,-1.60946 1.08115,-3.21892 1.63088,-4.82838c0.27487,-0.82302 0.54974,-1.62775 0.8246,-2.45077c0.60471,-1.68262 1.22774,-3.38352 1.83245,-5.06614c0.31152,-0.8596 0.62303,-1.71919 0.93455,-2.57879c0.69633,-1.77406 1.37434,-3.54812 2.05235,-5.32219c0.34817,-0.91447 0.71466,-1.81064 1.06282,-2.70682c0.7513,-1.8838 1.52093,-3.7676 2.27224,-5.65139c0.38481,-0.95104 0.78795,-1.90209 1.17277,-2.85313c0.84293,-1.99353 1.66753,-3.96878 2.51046,-5.96231c0.43979,-1.00591 0.86125,-2.01182 1.28272,-3.03602c0.93455,-2.10327 1.85078,-4.20654 2.767,-6.30981c1.48429,-3.31036 2.95025,-6.62073 4.43453,-9.93109c3.02354,-6.69388 6.06541,-13.40606 9.08896,-20.09994c8.57587,-1.20709 17.17007,-2.41419 25.74594,-3.62128c3.37171,-0.5121 6.76174,-1.00591 10.13345,-1.5363c2.78533,-0.43894 5.57065,-0.89618 8.35598,-1.35341c1.53926,-0.25605 3.09684,-0.53039 4.65443,-0.78644c1.41099,-0.25605 2.82197,-0.5121 4.23296,-0.76815c0.8246,-0.14631 1.64921,-0.29263 2.47381,-0.45723c1.06282,-0.20118 2.10732,-0.42065 3.17014,-0.62184c1.52093,-0.31092 3.06019,-0.64013 4.58113,-0.95104c0.95287,-0.20118 1.92407,-0.38408 2.87695,-0.58526c0.56806,-0.10974 1.1178,-0.20118 1.66753,-0.31092c0.25654,-0.05487 0.53141,-0.09145 0.78795,-0.14631c0.45811,-0.07316 0.91623,-0.12803 1.39266,-0.20118c0.20157,-0.03658 0.42146,-0.07316 0.64136,-0.09145c0.38481,-0.03658 0.7513,-0.07316 1.1178,-0.10974c0.18325,0 0.36649,-0.01829 0.53141,-0.03658c0.29319,0.01829 0.58638,0.01829 0.86125,0.03658zM197.70419,593.3826c0.45811,0.05487 0.91623,0.09145 1.37434,0.14631c1.02617,0.20118 2.05235,0.42065 3.07852,0.62184c0.53141,0.12803 1.06282,0.23776 1.59423,0.36579c1.13612,0.31092 2.25391,0.64013 3.39003,0.96933c0.58638,0.18289 1.15444,0.3475 1.7225,0.53039c1.17277,0.42065 2.36386,0.84131 3.53663,1.24367c0.58638,0.21947 1.17277,0.43894 1.75915,0.65841c1.15444,0.49381 2.32721,0.96933 3.48166,1.46314c0.58638,0.23776 1.15444,0.49381 1.7225,0.74986c1.09947,0.5121 2.18062,1.04249 3.26176,1.57288c0.53141,0.27434 1.06282,0.53039 1.59423,0.80473c0.95287,0.53039 1.90575,1.07907 2.85862,1.62775c0.45811,0.25605 0.91623,0.53039 1.37434,0.80473c0.7513,0.53039 1.52093,1.06078 2.29056,1.59117c0.86125,0.76815 1.7225,1.51801 2.58376,2.28616c0.12827,0.14631 0.25654,0.29263 0.40314,0.43894c0.20157,0.25605 0.42146,0.5121 0.62303,0.76815c0.09162,0.12803 0.20157,0.25605 0.29319,0.38408c0.12827,0.27434 0.27487,0.53039 0.40314,0.78644c0.05497,0.12803 0.10995,0.25605 0.16492,0.38408c0.05497,0.31092 0.09162,0.60355 0.1466,0.91447c0.01832,0.1646 0.01832,0.32921 0.03665,0.47552c-0.03665,0.40236 -0.09162,0.78644 -0.12827,1.1888c-0.03665,0.20118 -0.0733,0.42065 -0.10995,0.64013c-0.1466,0.53039 -0.29319,1.06078 -0.42146,1.57288c-0.09162,0.29263 -0.18325,0.58526 -0.27487,0.8596c-0.23822,0.71328 -0.49476,1.42657 -0.7513,2.13985c-0.1466,0.38408 -0.27487,0.76815 -0.42146,1.15223c-0.36649,0.95104 -0.73298,1.90209 -1.1178,2.83484c-1.13612,2.83484 -2.27224,5.65139 -3.40836,8.48624c-0.87958,2.3959 -1.77748,4.81009 -2.65705,7.22427c-0.43979,1.22538 -0.87958,2.45077 -1.31936,3.69444c-0.84293,2.57879 -1.68585,5.17587 -2.54711,7.75466c-0.42146,1.29854 -0.8246,2.61537 -1.24607,3.91391c-0.78795,2.67024 -1.57591,5.32219 -2.36386,7.97413c-0.38481,1.33512 -0.76963,2.65195 -1.15444,3.98707c-0.69633,2.61537 -1.39266,5.23074 -2.08899,7.8644c-0.32984,1.28025 -0.65968,2.57879 -1.00785,3.87733c-0.56806,2.46906 -1.15444,4.93811 -1.7225,7.42546c-0.1466,0.60355 -0.27487,1.20709 -0.42146,1.81064c-0.23822,1.15223 -0.47644,2.32274 -0.73298,3.49326c-0.10995,0.56697 -0.23822,1.13394 -0.34817,1.71919c-0.20157,1.07907 -0.40314,2.17643 -0.62303,3.2555c-0.09162,0.53039 -0.18325,1.07907 -0.29319,1.60946c-0.1466,1.00591 -0.31152,1.99353 -0.47644,2.99945c-0.0733,0.49381 -0.1466,0.98762 -0.23822,1.46314c-0.10995,0.91446 -0.21989,1.81064 -0.34817,2.70682c-0.05497,0.43894 -0.09162,0.87789 -0.1466,1.31683c-0.0733,0.78644 -0.1466,1.57288 -0.20157,2.35932c-0.05497,1.04249 -0.09162,2.08498 -0.12827,3.12747c0,0.20118 0,0.38408 0,0.58526c-0.01832,0.32921 -0.03665,0.65841 -0.05497,0.98762c0,0.1646 -0.01832,0.31092 -0.03665,0.47552c-0.05497,0.25605 -0.10995,0.5121 -0.16492,0.78644c-0.03665,0.12803 -0.0733,0.23776 -0.10995,0.36579c-0.10995,0.21947 -0.21989,0.42065 -0.32984,0.62184c-0.0733,0.10974 -0.12827,0.20118 -0.20157,0.31092c-0.18325,0.1646 -0.36649,0.32921 -0.56806,0.49381c-0.09162,0.09145 -0.20157,0.1646 -0.31152,0.25605c-0.27487,0.12803 -0.54974,0.27434 -0.84293,0.42065c-0.1466,0.07316 -0.29319,0.12803 -0.45811,0.20118c-0.38481,0.12803 -0.76963,0.25605 -1.17277,0.38408c-0.20157,0.07316 -0.42146,0.12803 -0.62303,0.20118c-0.51309,0.12803 -1.0445,0.25605 -1.55758,0.38408c-0.93455,0.21947 -1.88742,0.42065 -2.82197,0.64013c-0.42146,0.09145 -0.84293,0.18289 -1.26439,0.27434c-1.17277,0.23776 -2.32721,0.45723 -3.48166,0.69499c-0.64136,0.12803 -1.26439,0.23776 -1.90575,0.36579c-0.27487,0.05487 -0.56806,0.10974 -0.86125,0.1646c-0.42146,0.05487 -0.8246,0.12803 -1.22774,0.20118c-0.09162,0 -0.18325,0.01829 -0.25654,0.03658c-0.12827,0 -0.23822,0.01829 -0.36649,0.03658c-0.0733,0 -0.16492,0 -0.25654,0c-0.01832,-0.01829 -0.03665,-0.01829 -0.05497,-0.03658c-0.23822,-0.05487 -0.47644,-0.10974 -0.71466,-0.1646c-0.1466,-0.03658 -0.31152,-0.07316 -0.45811,-0.10974c-0.71466,-0.14631 -1.42931,-0.31092 -2.14397,-0.45723c-0.95287,-0.20118 -1.88742,-0.38408 -2.8403,-0.58526c-1.68585,-0.32921 -3.35339,-0.65841 -5.03924,-0.98762c-1.81413,-0.54868 -3.62825,-1.09736 -5.4607,-1.66433c-0.87958,-0.29263 -1.77748,-0.60355 -2.65705,-0.89618c-1.66753,-0.76815 -3.35339,-1.5363 -5.02092,-2.30445c-0.80628,-0.42065 -1.63088,-0.82302 -2.45548,-1.22538c-1.50261,-0.96933 -3.02354,-1.93867 -4.54448,-2.88971c-0.73298,-0.5121 -1.48429,-1.00591 -2.21727,-1.51801c-1.35601,-1.13394 -2.71203,-2.26787 -4.06804,-3.40181c-0.65968,-0.58526 -1.31936,-1.1888 -1.97905,-1.77406c-1.19109,-1.28025 -2.38219,-2.57879 -3.57328,-3.85904c-0.56806,-0.65841 -1.13612,-1.31683 -1.70418,-1.99353c-1.02617,-1.40828 -2.03402,-2.83484 -3.04187,-4.26141c-0.49476,-0.71328 -0.9712,-1.44485 -1.46596,-2.15814c-0.8246,-1.5363 -1.64921,-3.0726 -2.49213,-4.6089c-0.38481,-0.76815 -0.76963,-1.55459 -1.17277,-2.32274c-0.64136,-1.62775 -1.28272,-3.23721 -1.90575,-4.86495c-0.31152,-0.82302 -0.60471,-1.64604 -0.8979,-2.45077c-0.43979,-1.7009 -0.87958,-3.38352 -1.31936,-5.08443c-0.20157,-0.84131 -0.38481,-1.7009 -0.58638,-2.54221c-0.23822,-1.73748 -0.47644,-3.47497 -0.71466,-5.21245c-0.09162,-0.87789 -0.18325,-1.75577 -0.27487,-2.61537c-0.01832,-1.77406 -0.03665,-3.52983 -0.05497,-5.3039c0.01832,-0.87789 0.03665,-1.75577 0.05497,-2.65195c0.18325,-1.77406 0.38481,-3.52983 0.58638,-5.3039c0.12827,-0.89618 0.25654,-1.77406 0.38481,-2.65195c0.42146,-1.75577 0.86125,-3.51155 1.28272,-5.26732c0.23822,-0.87789 0.47644,-1.75577 0.73298,-2.61537c0.65968,-1.73748 1.31936,-3.45668 1.97905,-5.17587c0.36649,-0.84131 0.73298,-1.7009 1.09947,-2.5605c0.8979,-1.64604 1.81413,-3.31036 2.71203,-4.97469c1.64921,-2.41419 3.28009,-4.81009 4.92929,-7.22427c0.49476,-0.62184 0.9712,-1.24367 1.46596,-1.86551c1.13612,-1.17052 2.29056,-2.34103 3.42668,-3.51155c0.60471,-0.56697 1.20942,-1.13394 1.7958,-1.7009c1.33769,-1.06078 2.67538,-2.10327 4.01307,-3.14576c0.67801,-0.5121 1.37434,-1.00591 2.05235,-1.51801c1.48429,-0.89618 2.95025,-1.81064 4.43453,-2.70682c0.7513,-0.43894 1.50261,-0.8596 2.25391,-1.29854c1.57591,-0.73157 3.15182,-1.48143 4.72772,-2.23129c0.80628,-0.3475 1.59423,-0.69499 2.38219,-1.04249c1.63088,-0.54868 3.26176,-1.11565 4.89264,-1.68262c0.8246,-0.25605 1.63088,-0.49381 2.45548,-0.74986c1.63088,-0.36579 3.26176,-0.73157 4.91097,-1.07907c0.80628,-0.1646 1.63088,-0.31092 2.43716,-0.45723c1.59423,-0.14631 3.20679,-0.27434 4.80102,-0.42065c2.30889,0.07316 4.61778,0.12803 6.92666,0.20118zM1044.97456,266.13215c-0.34817,0.03658 -0.67801,0.07316 -1.02617,0.09145c-0.65968,0.12803 -1.33769,0.25605 -2.0157,0.38408c-0.32984,0.09145 -0.65968,0.1646 -0.98952,0.23776c-0.65968,0.21947 -1.33769,0.43894 -1.99737,0.65841c-0.32984,0.12803 -0.64136,0.23776 -0.9712,0.36579c-0.64136,0.31092 -1.30104,0.62184 -1.9424,0.93275c-0.31152,0.1646 -0.64136,0.32921 -0.95287,0.5121c-0.62303,0.40236 -1.24607,0.80473 -1.85078,1.20709c-0.31152,0.21947 -0.62303,0.43894 -0.93455,0.64013c-0.58638,0.5121 -1.17277,1.00591 -1.75915,1.49972c-0.86125,0.8596 -1.70418,1.71919 -2.54711,2.57879c-0.31152,0.3475 -0.62303,0.71328 -0.93455,1.06078c-0.53141,0.71328 -1.06282,1.42657 -1.59423,2.13985c-0.25654,0.3475 -0.49476,0.69499 -0.7513,1.04249c-0.40314,0.71328 -0.78795,1.42657 -1.19109,2.12156c-0.18325,0.36579 -0.36649,0.71328 -0.54974,1.07907c-0.27487,0.71328 -0.54974,1.42657 -0.8246,2.13985c-0.10995,0.3475 -0.23822,0.71328 -0.36649,1.06078c-0.12827,0.73157 -0.27487,1.46314 -0.42146,2.19472c-0.05497,0.36579 -0.10995,0.73157 -0.16492,1.09736c-0.01832,0.73157 -0.03665,1.48143 -0.0733,2.23129c0.01832,0.38408 0.01832,0.76815 0.03665,1.13394c0.09162,0.78644 0.20157,1.55459 0.31152,2.34103c0.0733,0.38408 0.12827,0.78644 0.20157,1.17052c0.23822,0.80473 0.45811,1.62775 0.69633,2.43248c0.47644,1.26196 0.9712,2.54221 1.44764,3.80417c0.27487,0.60355 0.53141,1.20709 0.80628,1.81064c0.67801,1.06078 1.33769,2.12156 2.0157,3.18234c0.34817,0.49381 0.71466,1.00591 1.06282,1.49972c0.84293,0.8596 1.66753,1.71919 2.49213,2.5605c0.43979,0.40236 0.86125,0.80473 1.30104,1.20709c0.95287,0.62184 1.90575,1.26196 2.85862,1.90209c0.49476,0.29263 0.98952,0.56697 1.46596,0.8596c1.06282,0.42065 2.10732,0.82302 3.17014,1.22538c0.53141,0.18289 1.06282,0.3475 1.61256,0.53039c1.1178,0.1646 2.23559,0.3475 3.37171,0.5121c0.56806,0.05487 1.13612,0.10974 1.70418,0.18289c1.15444,-0.07316 2.32721,-0.14631 3.48166,-0.21947c0.58638,-0.07316 1.17277,-0.14631 1.75915,-0.20118c1.17277,-0.32921 2.36386,-0.65841 3.53663,-0.98762c0.58638,-0.20118 1.17277,-0.38408 1.75915,-0.58526c1.15444,-0.58526 2.32721,-1.1888 3.48166,-1.77406c0.47644,-0.27434 0.9712,-0.54868 1.44764,-0.82302c0.86125,-0.6767 1.7225,-1.33512 2.60208,-2.01182c0.40314,-0.3475 0.8246,-0.69499 1.24607,-1.04249c0.71466,-0.78644 1.44764,-1.57288 2.16229,-2.35932c0.34817,-0.42065 0.69633,-0.82302 1.0445,-1.22538c0.56806,-0.87789 1.13612,-1.77406 1.70418,-2.65195c0.27487,-0.43894 0.53141,-0.89618 0.80628,-1.35341c0.40314,-0.93275 0.80628,-1.86551 1.20942,-2.81655c0.18325,-0.47552 0.36649,-0.95104 0.54974,-1.42657c0.21989,-0.96933 0.45811,-1.93867 0.67801,-2.908c0.09162,-0.49381 0.18325,-0.96933 0.27487,-1.46314c0.03665,-0.96933 0.0733,-1.92038 0.10995,-2.88971c0,-0.49381 0,-0.96933 -0.01832,-1.44485c-0.16492,-0.93275 -0.31152,-1.86551 -0.47644,-2.79826c-0.49476,-1.31683 -0.9712,-2.65195 -1.46596,-3.96878c-0.20157,-0.40236 -0.40314,-0.78644 -0.60471,-1.17052c-0.43979,-0.73157 -0.8979,-1.46314 -1.33769,-2.17643c-0.23822,-0.3475 -0.45811,-0.71328 -0.69633,-1.06078c-0.49476,-0.64013 -0.98952,-1.28025 -1.48429,-1.93867c-0.25654,-0.31092 -0.49476,-0.62184 -0.7513,-0.93275c-0.54974,-0.56697 -1.08115,-1.11565 -1.63088,-1.68262c-0.27487,-0.27434 -0.54974,-0.54868 -0.8246,-0.80473c-0.56806,-0.49381 -1.15444,-0.96933 -1.7225,-1.44485c-0.29319,-0.23776 -0.58638,-0.45723 -0.87958,-0.69499c-0.62303,-0.38408 -1.22774,-0.78644 -1.83245,-1.1888c-0.31152,-0.18289 -0.62303,-0.36579 -0.93455,-0.56697c-0.62303,-0.31092 -1.26439,-0.62184 -1.90575,-0.93275c-0.31152,-0.14631 -0.64136,-0.27434 -0.95287,-0.42065c-0.65968,-0.23776 -1.31936,-0.45723 -1.96072,-0.6767c-0.32984,-0.10974 -0.65968,-0.21947 -0.98952,-0.31092c-0.67801,-0.14631 -1.33769,-0.27434 -2.0157,-0.42065c-0.32984,-0.05487 -0.65968,-0.10974 -0.98952,-0.1646c-0.67801,-0.05487 -1.35601,-0.10974 -2.03402,-0.1646c-0.34817,0 -0.67801,-0.01829 -1.00785,-0.03658c-0.67801,0.03658 -1.35601,0.07316 -2.03402,0.10974zM440.02751,167.11388c2.10732,1.04249 4.19631,2.10327 6.30363,3.14576c2.63873,1.29854 5.29578,2.61537 7.95284,3.91391c2.45548,1.17052 4.91097,2.34103 7.36645,3.51155c1.20942,0.56697 2.41884,1.13394 3.62825,1.7009c2.29056,1.04249 4.59945,2.08498 6.90834,3.12747c1.13612,0.5121 2.27224,1.0242 3.42668,1.5363c2.23559,0.95104 4.47118,1.90209 6.70677,2.85313c1.1178,0.45723 2.23559,0.93275 3.35339,1.38999c2.25391,0.89618 4.50783,1.79235 6.76174,2.68853c1.13612,0.43894 2.27224,0.87789 3.40836,1.33512c2.36386,0.8596 4.72772,1.73748 7.09159,2.61537c1.19109,0.43894 2.40051,0.87789 3.5916,1.31683c2.54711,0.87789 5.09421,1.77406 7.65965,2.65195c4.12301,1.38999 8.26435,2.77997 12.38737,4.16996c1.19109,0.38408 2.40051,0.78644 3.5916,1.1888c2.47381,0.76815 4.94762,1.51801 7.4031,2.28616c1.26439,0.38408 2.51046,0.76815 3.75652,1.15223c2.56543,0.73157 5.13086,1.46314 7.69629,2.19472c1.28272,0.36579 2.58376,0.73157 3.8848,1.09736c2.63873,0.71328 5.29578,1.40828 7.95284,2.12156c1.33769,0.3475 2.67538,0.69499 4.01307,1.04249c2.73035,0.65841 5.4607,1.33512 8.19106,2.01182c2.74868,0.65841 5.49735,1.31683 8.24603,1.97524c5.69892,1.22538 11.39785,2.43248 17.09677,3.65786c2.87695,0.58526 5.7539,1.17052 8.63084,1.75577c5.91882,1.07907 11.81931,2.13985 17.7198,3.20063c2.96857,0.5121 5.95547,1.0242 8.92404,1.5363c6.04709,0.89618 12.09418,1.79235 18.14126,2.70682c3.02354,0.42065 6.06541,0.84131 9.08896,1.28025c6.12039,0.71328 12.24077,1.44485 18.36116,2.17643c3.06019,0.32921 6.13871,0.6767 9.1989,1.00591c6.12039,0.54868 12.2591,1.07907 18.37948,1.60946c9.12561,0.58526 18.25121,1.17052 27.37682,1.75577c0.60471,0.03658 1.20942,0.05487 1.7958,0.09145c1.70418,0.09145 3.42668,0.18289 5.13086,0.29263c1.55758,0.09145 3.11517,0.20118 4.67275,0.31092c0.91623,0.07316 1.85078,0.1646 2.78533,0.23776c0.43979,0.03658 0.87958,0.07316 1.33769,0.10974c0.78795,0.07316 1.57591,0.14631 2.36386,0.23776c0.36649,0.03658 0.73298,0.07316 1.1178,0.10974c0.62303,0.07316 1.24607,0.1646 1.8691,0.23776c0.27487,0.03658 0.56806,0.07316 0.86125,0.10974c0.43979,0.07316 0.87958,0.14631 1.30104,0.21947c0.20157,0.03658 0.38481,0.07316 0.58638,0.10974c0.21989,0.07316 0.45811,0.14631 0.67801,0.21947c0.0733,0.09145 0.16492,0.20118 0.23822,0.29263c-0.03665,0.03658 -0.0733,0.07316 -0.10995,0.10974c-0.1466,0.07316 -0.29319,0.14631 -0.43979,0.21947c-0.0733,0.05487 -0.16492,0.09145 -0.23822,0.12803c-0.23822,0.09145 -0.47644,0.18289 -0.69633,0.27434c-0.12827,0.05487 -0.25654,0.10974 -0.38481,0.14631c-0.32984,0.10974 -0.64136,0.21947 -0.95287,0.31092c-0.16492,0.05487 -0.34817,0.10974 -0.51309,0.1646c-0.38481,0.12803 -0.78795,0.23776 -1.19109,0.36579c-0.42146,0.10974 -0.8246,0.23776 -1.24607,0.3475c-1.06282,0.27434 -2.10732,0.54868 -3.17014,0.82302c-0.56806,0.14631 -1.1178,0.27434 -1.68585,0.42065c-1.31936,0.31092 -2.63873,0.62184 -3.97642,0.93275c-0.67801,0.14631 -1.37434,0.31092 -2.07067,0.47552c-2.34554,0.5121 -4.7094,1.0242 -7.07326,1.5363c-2.65705,0.54868 -5.31411,1.11565 -7.97116,1.64604c-2.89527,0.58526 -5.79055,1.17052 -8.70414,1.73748c-3.07852,0.60355 -6.17536,1.1888 -9.2722,1.77406c-3.24344,0.60355 -6.48688,1.20709 -9.73031,1.81064c-4.45286,0.80473 -8.90571,1.60946 -13.35857,2.3959c-6.76174,1.15223 -13.52349,2.30445 -20.28523,3.4201c-4.34291,0.6767 -8.68582,1.3717 -13.04705,2.0484c-1.06282,0.1646 -2.12564,0.31092 -3.18846,0.47552c-2.05235,0.31092 -4.08637,0.60355 -6.13871,0.89618c-2.93192,0.42065 -5.84552,0.82302 -8.77744,1.22538c-0.42146,0.05487 -0.84293,0.10974 -1.26439,0.1646c-1.0445,0.10974 -2.08899,0.21947 -3.15182,0.31092c-0.54974,0.05487 -1.1178,0.10974 -1.66753,0.1646c-1.30104,0.09145 -2.60208,0.20118 -3.90312,0.29263c-0.67801,0.03658 -1.35601,0.09145 -2.03402,0.14631c-1.52093,0.07316 -3.02354,0.1646 -4.54448,0.25605c-0.78795,0.03658 -1.55758,0.09145 -2.34554,0.12803c-2.54711,0.10974 -5.09421,0.23776 -7.65965,0.3475c-2.74868,0.10974 -5.51568,0.20118 -8.26435,0.29263c-3.8848,0.12803 -7.76959,0.23776 -11.65439,0.32921c-6.06541,0.10974 -12.13083,0.21947 -18.19624,0.31092c-3.97642,0.01829 -7.95284,0.05487 -11.92926,0.07316c-0.9712,0 -1.9424,0 -2.9136,0c-2.82197,0 -5.62562,-0.01829 -8.4476,-0.03658c-2.6204,-0.01829 -5.25913,-0.05487 -7.87954,-0.09145c-2.40051,-0.05487 -4.7827,-0.10974 -7.16488,-0.1646c-1.41099,-0.05487 -2.82197,-0.10974 -4.25129,-0.14631c-0.67801,-0.03658 -1.35601,-0.05487 -2.03402,-0.09145c-1.17277,-0.05487 -2.36386,-0.12803 -3.53663,-0.20118c-0.56806,-0.03658 -1.1178,-0.07316 -1.66753,-0.10974c-0.91623,-0.07316 -1.83245,-0.1646 -2.74868,-0.23776c-2.41884,-0.25605 -4.81935,-0.49381 -7.23818,-0.74986c-4.72772,-0.62184 -9.45545,-1.24367 -14.18317,-1.8838c-2.34554,-0.32921 -4.69107,-0.65841 -7.03661,-0.98762c-4.59945,-0.78644 -9.1989,-1.57288 -13.79836,-2.37761c-2.29056,-0.40236 -4.5628,-0.82302 -6.85337,-1.24367c-4.47118,-0.95104 -8.96069,-1.90209 -13.43187,-2.87142c-2.21727,-0.49381 -4.45286,-0.98762 -6.67012,-1.48143c-4.36123,-1.13394 -8.72247,-2.26787 -13.0837,-3.38352c-2.16229,-0.58526 -4.34291,-1.17052 -6.5052,-1.75577c-4.25129,-1.29854 -8.50257,-2.59708 -12.75386,-3.89562c-2.12564,-0.65841 -4.23296,-1.33512 -6.34028,-1.99353c-4.15966,-1.48143 -8.31933,-2.94458 -12.46067,-4.42601c-2.07067,-0.74986 -4.12301,-1.49972 -6.19368,-2.26787c-4.06804,-1.64604 -8.11776,-3.29207 -12.16747,-4.93811c-5.99211,-2.65195 -11.98423,-5.32219 -17.97634,-7.99242c-0.91623,-0.43894 -1.83245,-0.8596 -2.73035,-1.29854c-1.97905,-0.96933 -3.93977,-1.93867 -5.91882,-2.908c-0.98952,-0.5121 -1.99737,-1.00591 -2.9869,-1.49972c-2.07067,-1.06078 -4.12301,-2.12156 -6.17536,-3.20063c-1.02617,-0.53039 -2.05235,-1.06078 -3.09684,-1.60946c-2.0157,-1.07907 -4.04972,-2.17643 -6.08374,-3.2555c-1.00785,-0.54868 -1.99737,-1.07907 -3.00522,-1.62775c-1.88742,-1.04249 -3.77485,-2.10327 -5.66227,-3.14576c-0.45811,-0.25605 -0.91623,-0.5121 -1.37434,-0.76815c-1.30104,-0.73157 -2.58376,-1.48143 -3.8848,-2.21301c-1.19109,-0.69499 -2.36386,-1.38999 -3.53663,-2.08498c-0.71466,-0.42065 -1.41099,-0.84131 -2.12564,-1.26196c-0.34817,-0.20118 -0.67801,-0.42065 -1.02617,-0.62184c-0.60471,-0.38408 -1.19109,-0.74986 -1.7958,-1.13394c-0.29319,-0.18289 -0.58638,-0.36579 -0.86125,-0.53039c-0.49476,-0.32921 -0.9712,-0.64013 -1.46596,-0.96933c-0.21989,-0.14631 -0.43979,-0.31092 -0.67801,-0.45723c-0.34817,-0.25605 -0.69633,-0.5121 -1.0445,-0.76815c-0.16492,-0.10974 -0.32984,-0.23776 -0.47644,-0.3475c-0.20157,-0.18289 -0.42146,-0.38408 -0.62303,-0.56697c-0.12827,-0.18289 -0.25654,-0.36579 -0.38481,-0.54868c0,-0.01829 0,-0.05487 0,-0.07316c0.05497,-0.07316 0.10995,-0.12803 0.16492,-0.20118c0.03665,-0.03658 0.0733,-0.07316 0.12827,-0.10974c0.12827,-0.10974 0.25654,-0.20118 0.38481,-0.29263c0.1466,-0.10974 0.31152,-0.21947 0.45811,-0.31092c0.51309,-0.29263 1.00785,-0.58526 1.52093,-0.87789c0.29319,-0.14631 0.56806,-0.31092 0.86125,-0.45723c0.7513,-0.38408 1.52093,-0.76815 2.27224,-1.13394c0.40314,-0.20118 0.80628,-0.40236 1.20942,-0.60355c0.98952,-0.45723 1.96072,-0.93275 2.93192,-1.38999c0.51309,-0.23776 1.02617,-0.47552 1.52093,-0.71328c1.75915,-0.78644 3.51831,-1.59117 5.27746,-2.37761c1.97905,-0.87789 3.95809,-1.75577 5.93714,-2.61537c2.16229,-0.93275 4.32458,-1.86551 6.48688,-2.79826c3.04187,-1.29854 6.10206,-2.57879 9.16225,-3.87733c4.80102,-1.95696 9.60204,-3.9322 14.42139,-5.88915c3.15182,-1.24367 6.28531,-2.48734 9.43712,-3.73102c0.76963,-0.31092 1.53926,-0.60355 2.30889,-0.91447c2.21727,-0.84131 4.43453,-1.7009 6.67012,-2.54221c2.05235,-0.76815 4.12301,-1.5363 6.17536,-2.30445c1.24607,-0.45723 2.51046,-0.89618 3.75652,-1.35341c1.68585,-0.56697 3.39003,-1.15223 5.07589,-1.73748c5.82719,-1.92038 11.65439,-3.85904 17.48158,-5.77942c10.1701,5.13929 20.35853,10.27859 30.52863,15.43617zM474.40429,53.18983c-0.65968,0 -1.31936,0 -1.97905,0c-1.1178,0.03658 -2.23559,0.05487 -3.33506,0.07316c-0.25654,0.01829 -0.51309,0.01829 -0.76963,0.03658c-0.45811,0.01829 -0.91623,0.03658 -1.39266,0.05487c-0.20157,0.01829 -0.42146,0.01829 -0.64136,0.03658c-0.38481,0.03658 -0.7513,0.05487 -1.13612,0.09145c-0.16492,0 -0.34817,0.01829 -0.53141,0.03658c-0.27487,0.03658 -0.56806,0.07316 -0.86125,0.10974c-0.12827,0.01829 -0.25654,0.01829 -0.38481,0.03658c-0.20157,0.05487 -0.40314,0.09145 -0.58638,0.12803c-0.09162,0.01829 -0.16492,0.05487 -0.25654,0.07316c-0.09162,0.03658 -0.18325,0.09145 -0.29319,0.14631c-0.01832,0.07316 -0.05497,0.1646 -0.0733,0.23776c0.01832,0.03658 0.05497,0.09145 0.0733,0.12803c0.16492,0.09145 0.32984,0.18289 0.49476,0.25605c0.10995,0.05487 0.20157,0.09145 0.31152,0.14631c0.29319,0.09145 0.60471,0.18289 0.8979,0.27434c0.16492,0.05487 0.32984,0.09145 0.49476,0.14631c0.42146,0.09145 0.84293,0.18289 1.26439,0.27434c0.23822,0.05487 0.45811,0.10974 0.67801,0.14631c0.53141,0.09145 1.0445,0.20118 1.57591,0.29263c0.54974,0.09145 1.09947,0.18289 1.64921,0.27434c1.33769,0.1646 2.67538,0.3475 4.01307,0.5121c2.21727,0.20118 4.45286,0.42065 6.68845,0.62184c1.35601,0.09145 2.71203,0.20118 4.08637,0.29263c2.80365,0.27434 5.6073,0.53039 8.41095,0.80473c1.41099,0.14631 2.82197,0.27434 4.23296,0.42065c2.9136,0.3475 5.80887,0.69499 8.72247,1.04249c1.44764,0.20118 2.9136,0.38408 4.37956,0.56697c2.9869,0.42065 5.97379,0.8596 8.96069,1.28025c1.52093,0.21947 3.02354,0.45723 4.52615,0.6767c3.06019,0.49381 6.12039,1.00591 9.18058,1.51801c1.53926,0.25605 3.07852,0.5121 4.61778,0.78644c3.13349,0.56697 6.26698,1.15223 9.38215,1.73748c1.57591,0.29263 3.13349,0.60355 4.7094,0.89618c3.17014,0.64013 6.34028,1.29854 9.52875,1.95696c3.17014,0.65841 6.3586,1.33512 9.54707,1.99353c6.45023,1.5363 12.91878,3.0726 19.38733,4.6089c3.22511,0.80473 6.46855,1.59117 9.71199,2.3959c6.48688,1.77406 12.97375,3.56641 19.46063,5.34048c3.24344,0.91447 6.48688,1.82893 9.73031,2.7434c6.41358,1.99353 12.84548,4.00536 19.25906,5.99889c3.18846,1.0242 6.39525,2.0484 9.58372,3.0726c6.24866,2.17643 12.49732,4.37114 18.74597,6.56586c1.55758,0.54868 3.09684,1.11565 4.65443,1.66433c3.04187,1.15223 6.08374,2.30445 9.12561,3.45668c4.4895,1.77406 8.96069,3.52983 13.45019,5.3039c1.48429,0.60355 2.96857,1.20709 4.45286,1.81064c3.04187,1.31683 6.10206,2.63366 9.14393,3.96878c1.53926,0.6767 3.07852,1.35341 4.61778,2.03011c3.13349,1.46314 6.26698,2.92629 9.4188,4.38943c1.57591,0.74986 3.15182,1.49972 4.72772,2.24958c3.22511,1.59117 6.4319,3.18234 9.63869,4.77351c1.61256,0.82302 3.22511,1.62775 4.83767,2.45077c3.26176,1.7009 6.52353,3.4201 9.78529,5.13929c1.63088,0.87789 3.28009,1.73748 4.91097,2.61537c3.29841,1.82893 6.5785,3.65786 9.87691,5.48679c1.64921,0.91447 3.29841,1.84722 4.94762,2.76168c3.29841,1.93867 6.61515,3.85904 9.91356,5.77942c1.64921,0.98762 3.29841,1.95696 4.94762,2.92629c3.29841,2.01182 6.59682,4.02365 9.89524,6.05376c4.91097,3.10918 9.82194,6.21836 14.73291,9.32754c6.63347,4.29799 13.26695,8.59597 19.90042,12.89396c8.42927,0.58526 16.87687,1.17052 25.30615,1.77406c2.36386,0.18289 4.74605,0.36579 7.10991,0.54868c1.26439,0.10974 2.54711,0.21947 3.8115,0.32921c1.13612,0.10974 2.25391,0.21947 3.37171,0.31092c0.93455,0.10974 1.8691,0.20118 2.80365,0.29263c0.49476,0.05487 0.98952,0.12803 1.46596,0.18289c0.23822,0.01829 0.45811,0.05487 0.67801,0.07316c0.32984,0.05487 0.64136,0.10974 0.9712,0.14631c0.27487,0.05487 0.54974,0.12803 0.8246,0.18289c0.20157,0.07316 0.40314,0.1646 0.60471,0.23776c0.47644,0.10974 0.95287,0.21947 1.42931,0.32921c0.23822,0.05487 0.47644,0.09145 0.71466,0.14631c0.45811,0.03658 0.91623,0.07316 1.37434,0.12803c0.21989,0 0.43979,0.01829 0.64136,0.03658c0.32984,-0.03658 0.65968,-0.07316 0.98952,-0.10974c0.1466,-0.03658 0.27487,-0.05487 0.40314,-0.09145c0.09162,-0.10974 0.18325,-0.23776 0.25654,-0.3475c0,-0.03658 0,-0.05487 0,-0.09145c-0.1466,-0.1646 -0.29319,-0.32921 -0.43979,-0.47552c-0.09162,-0.10974 -0.18325,-0.20118 -0.27487,-0.29263c-0.31152,-0.29263 -0.64136,-0.58526 -0.95287,-0.8596c-0.18325,-0.1646 -0.34817,-0.31092 -0.53141,-0.47552c-0.47644,-0.40236 -0.93455,-0.78644 -1.41099,-1.1888c-0.23822,-0.20118 -0.49476,-0.42065 -0.7513,-0.62184c-0.60471,-0.49381 -1.20942,-0.96933 -1.7958,-1.46314c-0.32984,-0.25605 -0.64136,-0.5121 -0.95287,-0.76815c-1.08115,-0.8596 -2.16229,-1.7009 -3.24344,-2.5605c-1.61256,-1.26196 -3.24344,-2.54221 -4.87432,-3.80417c-2.74868,-2.10327 -5.51568,-4.20654 -8.28268,-6.30981c-2.87695,-2.15814 -5.77222,-4.31627 -8.64917,-6.47441c-2.30889,-1.68262 -4.61778,-3.38352 -6.92666,-5.06614c-1.28272,-0.93275 -2.58376,-1.84722 -3.86647,-2.77997c-1.17277,-0.82302 -2.34554,-1.64604 -3.51831,-2.48734c-0.69633,-0.47552 -1.39266,-0.95104 -2.08899,-1.42657c-0.91623,-0.62184 -1.83245,-1.22538 -2.74868,-1.84722c-1.61256,-1.06078 -3.24344,-2.12156 -4.87432,-3.18234c-3.28009,-2.0484 -6.5785,-4.0968 -9.85859,-6.16349c-1.64921,-1.00591 -3.31674,-2.01182 -4.96594,-3.03602c-3.35339,-1.93867 -6.68845,-3.89562 -10.04183,-5.83429c-1.68585,-0.96933 -3.37171,-1.93867 -5.05756,-2.88971c-3.40836,-1.84722 -6.81672,-3.71273 -10.22508,-5.55995c-1.70418,-0.89618 -3.40836,-1.81064 -5.13086,-2.72511c-3.46333,-1.75577 -6.92666,-3.49326 -10.39,-5.24903c-1.74083,-0.8596 -3.48166,-1.71919 -5.22249,-2.57879c-3.51831,-1.64604 -7.03661,-3.29207 -10.55492,-4.93811c-1.75915,-0.80473 -3.53663,-1.62775 -5.29578,-2.43248c-3.57328,-1.5363 -7.14656,-3.09089 -10.71984,-4.62719c-1.7958,-0.74986 -3.5916,-1.51801 -5.36908,-2.26787c-3.62825,-1.44485 -7.25651,-2.88971 -10.86643,-4.31627c-1.83245,-0.71328 -3.64658,-1.42657 -5.4607,-2.12156c-3.6649,-1.33512 -7.34813,-2.67024 -11.01303,-4.00536c-1.85078,-0.65841 -3.68323,-1.31683 -5.534,-1.97524c-3.71988,-1.22538 -7.43975,-2.45077 -11.15963,-3.69444c-1.8691,-0.60355 -3.71988,-1.20709 -5.58898,-1.81064c-3.77485,-1.11565 -7.53137,-2.24958 -11.2879,-3.36523c-1.90575,-0.54868 -3.79317,-1.09736 -5.6806,-1.64604c-3.79317,-1.0242 -7.60467,-2.0484 -11.41617,-3.0726c-1.90575,-0.49381 -3.82982,-0.98762 -5.73557,-1.48143c-3.84815,-0.91447 -7.69629,-1.82893 -11.54444,-2.7434c-1.9424,-0.43894 -3.86647,-0.87789 -5.79055,-1.33512c-3.90312,-0.80473 -7.78792,-1.60946 -11.67271,-2.41419c-1.96072,-0.38408 -3.90312,-0.76815 -5.86384,-1.17052c-3.92145,-0.69499 -7.84289,-1.38999 -11.78266,-2.08498c-1.96072,-0.3475 -3.93977,-0.6767 -5.90049,-1.00591c-3.97642,-0.60355 -7.93451,-1.1888 -11.91093,-1.77406c-5.97379,-0.76815 -11.96591,-1.51801 -17.95802,-2.28616c-0.73298,-0.09145 -1.48429,-0.1646 -2.21727,-0.25605c-1.64921,-0.1646 -3.29841,-0.32921 -4.94762,-0.49381c-0.84293,-0.07316 -1.68585,-0.14631 -2.54711,-0.23776c-2.767,-0.23776 -5.534,-0.47552 -8.301,-0.69499c-2.96857,-0.21947 -5.95547,-0.43894 -8.92404,-0.65841c-4.17799,-0.27434 -8.33765,-0.54868 -12.51564,-0.80473c-4.30626,-0.23776 -8.63084,-0.45723 -12.9371,-0.69499c-2.16229,-0.10974 -4.30626,-0.21947 -6.46855,-0.32921c-4.17799,-0.1646 -8.35598,-0.32921 -12.53396,-0.49381c-1.00785,-0.03658 -2.03402,-0.07316 -3.06019,-0.10974c-2.9136,-0.09145 -5.82719,-0.18289 -8.75912,-0.27434c-2.67538,-0.07316 -5.36908,-0.12803 -8.06278,-0.18289c-2.40051,-0.03658 -4.80102,-0.05487 -7.20153,-0.09145c-1.37434,0 -2.767,0 -4.14134,0.01829z" stroke-linecap="round"></path>
</g>
		<g id="66b5ee29-1114-49c5-b94c-37f7a432be32-child-0">
<path style="stroke: rgb(193,193,193); stroke-opacity: 1.00; stroke-width: 0; stroke-dasharray: none; stroke-linecap: butt; stroke-dashoffset: 0; stroke-linejoin: miter; stroke-miterlimit: 4; fill: rgb(0,0,0); fill-opacity: 1.00; fill-rule: nonzero; opacity: 1;" transform="matrix(1.832451 0 0 1.82893 601.887905 595.284685) matrix(1 0 0 1 0 0)  translate(-530.569699, -495.530767)" d="M 203.25 818.25 C 203.52 817.29 210.93 799.17 219.72 778.00 C 228.51 756.83 240.77 727.12 246.97 712.00 C 260.02 680.16 262.31 675.34 264.73 674.61 C 265.70 674.31 269.60 673.59 273.39 672.99 C 287.99 670.71 305.47 661.42 313.27 651.80 C 320.50 642.88 325.44 631.26 327.92 617.34 C 328.49 614.13 329.66 602.95 330.52 592.50 C 333.38 557.52 337.12 539.41 346.08 517.00 C 355.34 493.86 367.31 475.19 384.36 457.32 C 414.70 425.53 454.33 403.03 504.68 389.01 C 527.09 382.77 609.67 359.35 625.00 354.88 C 648.59 348.01 659.48 340.89 665.64 328.31 C 667.96 323.56 668.45 321.25 668.46 315.03 C 668.47 306.03 666.29 301.12 659.86 295.62 C 651.52 288.47 645.25 287.14 605.30 283.98 C 529.86 278.03 491.01 268.44 448.70 245.34 C 420.91 230.16 390.30 204.90 376.01 185.36 L 372.98 181.21 L 381.95 179.56 C 432.52 170.27 494.85 168.42 536.50 174.97 C 580.68 181.92 623.41 198.00 659.62 221.31 C 674.50 230.88 682.93 237.01 702.84 252.71 C 710.72 258.93 719.05 265.12 721.35 266.46 C 728.39 270.59 738.28 273.82 753.21 276.88 C 774.31 281.20 788.39 287.37 803.49 298.91 C 821.17 312.42 849.05 346.37 850.67 356.36 C 852.10 365.15 845.49 379.69 835.58 389.54 C 824.96 400.10 812.60 405.80 789.00 411.00 C 766.47 415.96 761.07 417.57 752.67 421.77 C 742.34 426.94 732.27 435.87 727.12 444.42 C 722.69 451.77 718.94 463.13 715.05 481.00 C 713.31 488.98 711.65 496.44 711.37 497.60 C 710.88 499.60 711.33 499.72 721.68 500.28 C 735.13 501.02 754.75 504.15 769.99 508.00 C 801.23 515.88 823.88 526.99 841.19 542.92 C 847.16 548.40 858.00 560.92 858.00 562.32 C 858.00 562.61 855.64 564.20 852.75 565.84 C 839.77 573.22 827.09 573.82 813.31 567.69 C 799.01 561.34 777.46 555.08 760.50 552.36 C 747.52 550.27 719.71 549.52 705.50 550.88 C 682.47 553.09 651.88 559.37 632.52 565.87 C 629.24 566.98 626.46 567.79 626.35 567.68 C 626.17 567.50 631.70 541.54 642.59 491.50 C 645.10 479.95 650.49 454.85 654.56 435.73 C 658.64 416.61 662.27 399.73 662.64 398.23 C 663.24 395.77 662.80 396.00 658.27 400.58 C 655.50 403.37 650.68 407.35 647.55 409.42 C 637.77 415.91 637.87 415.88 570.50 434.45 C 536.13 443.92 528.87 446.33 521.87 450.58 C 514.32 455.17 505.78 464.55 502.16 472.25 C 498.94 479.10 489.71 516.00 491.21 516.00 C 491.73 516.00 505.51 512.20 521.83 507.56 C 572.18 493.23 624.20 478.87 624.53 479.20 C 625.03 479.70 616.32 517.07 614.58 521.89 C 611.02 531.74 604.11 540.44 595.12 546.41 C 587.33 551.59 580.19 554.01 540.50 564.93 C 524.55 569.33 503.43 575.30 493.57 578.21 L 475.64 583.50 L 470.47 597.16 C 459.55 626.01 448.92 643.16 430.55 661.57 C 401.14 691.04 361.43 708.06 310.09 713.19 L 298.25 714.38 L 294.01 724.94 C 276.32 768.97 252.78 802.66 232.26 813.34 C 224.68 817.27 214.55 819.95 207.13 819.98 C 203.45 820.00 202.84 819.73 203.25 818.25 z M 780.40 341.73 C 786.71 338.11 789.72 330.21 786.88 324.68 C 781.59 314.39 770.24 312.41 763.10 320.54 C 758.99 325.22 758.31 329.64 760.82 335.33 C 764.33 343.26 772.86 346.05 780.40 341.73 z M 689.00 274.63 C 689.00 273.87 668.19 258.02 661.00 253.31 C 618.51 225.43 569.51 207.98 517.00 202.03 C 497.62 199.83 453.39 198.20 454.32 199.71 C 454.66 200.26 459.11 201.02 464.22 201.39 C 499.85 204.02 547.54 215.81 586.13 231.53 C 605.56 239.45 628.03 251.45 649.35 265.30 L 660.21 272.35 L 672.35 273.20 C 679.03 273.67 684.95 274.23 685.50 274.45 C 686.83 274.97 689.00 275.09 689.00 274.63 z M 289.01 806.75 C 289.03 788.72 293.36 773.33 306.82 743.51 L 311.78 732.52 L 324.13 730.78 C 330.93 729.83 339.80 728.36 343.85 727.52 C 354.71 725.28 354.38 724.94 350.40 734.25 C 344.91 747.13 326.54 782.30 321.06 790.41 C 315.11 799.23 306.60 807.04 298.59 811.05 C 289.49 815.59 289.00 815.37 289.01 806.75 z M 301.13 562.92 C 275.98 557.98 265.08 527.67 281.09 507.18 C 287.47 499.00 300.25 493.39 310.00 494.49 C 315.97 495.15 326.57 499.76 329.44 502.93 C 331.17 504.85 331.12 505.20 327.68 513.71 C 321.84 528.16 316.00 550.81 316.00 559.03 C 316.00 561.59 315.56 561.93 310.95 562.92 C 308.17 563.51 305.81 563.95 305.70 563.89 C 305.59 563.83 303.53 563.39 301.13 562.92 z M 484.51 315.94 C 452.89 312.65 424.87 305.09 399.00 292.84 C 387.05 287.19 369.05 277.07 369.02 275.99 C 368.98 274.78 402.44 260.66 416.04 256.14 L 425.58 252.98 L 441.04 260.81 C 460.27 270.55 470.41 274.79 489.47 281.08 C 520.82 291.43 563.23 298.75 602.79 300.63 C 610.66 301.01 616.73 301.64 616.29 302.04 C 614.33 303.83 573.06 311.72 548.50 314.99 C 537.52 316.46 495.50 317.08 484.51 315.94 z" stroke-linecap="round"></path>
</g>
</g>
</g>

  </svg>